<svg xmlns:inkscape="http://www.inkscape.org/namespaces/inkscape" xmlns:sodipodi="http://sodipodi.sourceforge.net/DTD/sodipodi-0.dtd" xmlns="http://www.w3.org/2000/svg" xmlns:svg="http://www.w3.org/2000/svg" version="1.1" id="svg2" width="600" height="600" viewBox="0 0 600 600" sodipodi:docname="16717130_2002.i039.010_chatbot_messenger_ai_isometric_set-05.eps">
  <defs id="defs6" fill="#000000">
    <clipPath clipPathUnits="userSpaceOnUse" id="clipPath288" fill="#000000">
      <path d="m 2310.9,1673.46 -0.07,-24.71 c -12.66,3.5 -24.79,6.8 -36.4,9.94 -11.62,3.14 -22.34,5.95 -32.19,8.43 -9.85,2.48 -18.53,4.65 -26,6.57 -7.5,1.9 -13.41,3.35 -17.78,4.37 l 0.07,24.72 c 4.37,-1.03 10.28,-2.48 17.77,-4.39 7.48,-1.9 16.15,-4.08 26.01,-6.56 9.85,-2.49 20.57,-5.29 32.19,-8.42 11.61,-3.15 23.74,-6.46 36.4,-9.95" id="path286" fill="#000000"/>
    </clipPath>
    <clipPath clipPathUnits="userSpaceOnUse" id="clipPath300" fill="#000000">
      <path d="m 2392.87,1648.92 -0.07,-24.71 c -10.67,2.97 -21.3,5.92 -31.84,8.87 l 0.06,24.71 c 10.56,-2.95 21.18,-5.9 31.85,-8.87" id="path298" fill="#000000"/>
    </clipPath>
    <clipPath clipPathUnits="userSpaceOnUse" id="clipPath312" fill="#000000">
      <path d="m 2423.68,1640.04 -0.07,-24.72 c -9.88,2.95 -20.15,5.92 -30.81,8.89 l 0.07,24.71 c 10.66,-2.97 20.92,-5.93 30.81,-8.88" id="path310" fill="#000000"/>
    </clipPath>
    <clipPath clipPathUnits="userSpaceOnUse" id="clipPath328" fill="#000000">
      <path d="m 2258.01,1543.76 -0.06,-24.71 c -15.21,18.13 -29.04,35.01 -41.53,50.62 -12.49,15.61 -24.04,30.47 -34.53,44.57 -10.54,14.13 -20.26,27.67 -29.23,40.64 -8.94,12.97 -17.29,25.87 -25.01,38.72 l 0.07,24.71 c 7.72,-12.85 16.06,-25.76 25.01,-38.72 8.97,-12.97 18.69,-26.52 29.23,-40.64 10.49,-14.1 22.04,-28.96 34.53,-44.57 12.49,-15.61 26.32,-32.49 41.52,-50.62" id="path326" fill="#000000"/>
    </clipPath>
    <clipPath clipPathUnits="userSpaceOnUse" id="clipPath506" fill="#000000">
      <path d="m 1806.62,2242.99 -84.91,49.34 c -9.34,5.43 -16.22,16.1 -18.88,33 l 84.91,-49.34 c 2.66,-16.91 9.53,-27.57 18.88,-33" id="path504" fill="#000000"/>
    </clipPath>
    <clipPath clipPathUnits="userSpaceOnUse" id="clipPath520" fill="#000000">
      <path d="m 1879.66,3128.76 84.91,-49.34 c -24.78,14.4 -59.12,12.6 -97.58,-9.6 l -84.9,49.34 c 38.45,22.21 72.8,24 97.57,9.6" id="path518" fill="#000000"/>
    </clipPath>
    <clipPath clipPathUnits="userSpaceOnUse" id="clipPath536" fill="#000000">
      <path d="m 1706.15,2793.58 -84.91,49.34 c -13.88,88.08 50.36,212.45 134.97,261.3 l 84.9,-49.34 c -84.61,-48.85 -148.85,-173.23 -134.96,-261.3" id="path534" fill="#000000"/>
    </clipPath>
    <clipPath clipPathUnits="userSpaceOnUse" id="clipPath556" fill="#000000">
      <path d="m 1960.92,3065.43 59.13,-34.37 c -25.1,14.59 -59.86,12.54 -98.23,-9.61 l -59.14,34.36 c 38.37,22.16 73.13,24.2 98.24,9.62" id="path554" fill="#000000"/>
    </clipPath>
    <clipPath clipPathUnits="userSpaceOnUse" id="clipPath570" fill="#000000">
      <path d="m 1824.42,2694.44 -59.13,34.37 c -24.79,14.4 -40.15,45.02 -40.28,88.55 -0.25,87.64 61.4,194.42 137.67,238.45 l 59.14,-34.36 c -76.27,-44.04 -137.92,-150.82 -137.67,-238.46 0.12,-43.52 15.49,-74.15 40.27,-88.55" id="path568" fill="#000000"/>
    </clipPath>
    <clipPath clipPathUnits="userSpaceOnUse" id="clipPath586" fill="#000000">
      <path d="m 1935.52,2963.68 -13.7,57.77 c 76.26,44.03 138.28,8.65 138.53,-78.99 0.25,-87.64 -61.36,-194.36 -137.63,-238.39 -76.27,-44.03 -138.32,-8.72 -138.57,78.92 -0.25,87.64 61.4,194.42 137.67,238.46 l 13.7,-57.77 c -52.24,-30.13 -94.59,-103.49 -94.4,-163.51 0.15,-60.04 42.77,-84.3 95.02,-54.1 52.25,30.14 94.56,103.42 94.36,163.44 -0.14,60.06 -42.74,84.36 -94.98,54.17" id="path584" fill="#000000"/>
    </clipPath>
    <clipPath clipPathUnits="userSpaceOnUse" id="clipPath634" fill="#000000">
      <path d="m 2804.6,2773.85 59.13,-34.37 c -25.1,14.59 -59.86,12.54 -98.23,-9.61 l -59.14,34.37 c 38.37,22.15 73.13,24.2 98.24,9.61" id="path632" fill="#000000"/>
    </clipPath>
    <clipPath clipPathUnits="userSpaceOnUse" id="clipPath648" fill="#000000">
      <path d="m 2668.11,2402.87 -59.14,34.36 c -24.79,14.4 -40.15,45.03 -40.28,88.55 -0.25,87.64 61.4,194.43 137.67,238.46 l 59.14,-34.37 c -76.27,-44.03 -137.92,-150.82 -137.67,-238.46 0.12,-43.52 15.49,-74.14 40.28,-88.54" id="path646" fill="#000000"/>
    </clipPath>
    <clipPath clipPathUnits="userSpaceOnUse" id="clipPath664" fill="#000000">
      <path d="m 2779.2,2672.1 -13.7,57.77 c 76.27,44.03 138.28,8.65 138.53,-78.99 0.25,-87.64 -61.36,-194.35 -137.63,-238.39 -76.27,-44.03 -138.32,-8.71 -138.57,78.92 -0.25,87.64 61.4,194.43 137.67,238.46 l 13.7,-57.77 c -52.24,-30.12 -94.6,-103.49 -94.39,-163.5 0.13,-60.04 42.76,-84.3 95.01,-54.1 52.25,30.13 94.55,103.42 94.36,163.43 -0.14,60.06 -42.74,84.36 -94.98,54.17" id="path662" fill="#000000"/>
    </clipPath>
    <clipPath clipPathUnits="userSpaceOnUse" id="clipPath676" fill="#000000">
      <path d="m 2805.28,1861.49 -84.9,49.34 c -9.34,5.43 -16.22,16.09 -18.89,33 l 84.91,-49.35 c 2.66,-16.9 9.54,-27.56 18.88,-32.99" id="path674" fill="#000000"/>
    </clipPath>
    <clipPath clipPathUnits="userSpaceOnUse" id="clipPath690" fill="#000000">
      <path d="m 2878.32,2747.26 84.91,-49.34 c -24.77,14.39 -59.12,12.6 -97.57,-9.6 l -84.91,49.34 c 38.46,22.2 72.8,24 97.57,9.6" id="path688" fill="#000000"/>
    </clipPath>
    <clipPath clipPathUnits="userSpaceOnUse" id="clipPath706" fill="#000000">
      <path d="m 2704.81,2412.08 -84.9,49.34 c -13.89,88.07 50.36,212.45 134.96,261.3 l 84.91,-49.34 c -84.61,-48.85 -148.85,-173.23 -134.97,-261.3" id="path704" fill="#000000"/>
    </clipPath>
  </defs>
  <sodipodi:namedview id="namedview4" pagecolor="#ffffff" bordercolor="#000000" borderopacity="0.25" inkscape:showpageshadow="2" inkscape:pageopacity="0.0" inkscape:pagecheckerboard="0" inkscape:deskcolor="#d1d1d1" fill="#000000"/>
  <g id="g8" inkscape:groupmode="layer" inkscape:label="ink_ext_XXXXXX" transform="matrix(1.3333333,0,0,-1.3333333,0,600)">
    <g id="g10" transform="scale(0.1)">
      <path d="m 2564.6,1060.2 h -230.79 l -216.7,665.56 555.67,305.18 777.5,-458.69 -885.68,-512.05" style="fill:#f1edea;fill-opacity:1;fill-rule:nonzero;stroke:none" id="path12"/>
      <path d="m 1487.29,1768.49 41.28,23.98 55.97,-32.31 -41.28,-23.99 -55.97,32.32" style="fill:#d3d9f2;fill-opacity:1;fill-rule:nonzero;stroke:none" id="path14"/>
      <path d="m 1593.04,1786.46 41.28,23.99 -42.24,-69 -41.27,-23.99 42.23,69" style="fill:#9bb0ff;fill-opacity:1;fill-rule:nonzero;stroke:none" id="path16"/>
      <path d="m 1690.68,1744.42 41.28,23.98 -0.04,-14.3 -41.27,-23.99 0.03,14.31" style="fill:#c9d4ff;fill-opacity:1;fill-rule:nonzero;stroke:none" id="path18"/>
      <path d="m 1585.5,1805.15 41.27,23.98 105.19,-60.73 -41.28,-23.98 -105.18,60.73" style="fill:#d3d9f2;fill-opacity:1;fill-rule:nonzero;stroke:none" id="path20"/>
      <path d="m 1690.68,1744.42 -0.03,-14.31 -97.61,56.35 -42.23,-69 -63.55,36.7 0.03,14.33 55.97,-32.32 42.24,68.98 105.18,-60.73" style="fill:#c9d4ff;fill-opacity:1;fill-rule:nonzero;stroke:none" id="path22"/>
      <path d="m 1640.6,1855.8 41.27,23.98 55.96,-32.31 -41.27,-23.99 -55.96,32.32" style="fill:#d3d9f2;fill-opacity:1;fill-rule:nonzero;stroke:none" id="path24"/>
      <path d="m 1746.35,1873.77 41.27,23.99 -42.23,-69 -41.28,-23.98 42.24,68.99" style="fill:#9bb0ff;fill-opacity:1;fill-rule:nonzero;stroke:none" id="path26"/>
      <path d="m 1843.99,1831.73 41.26,23.98 -0.03,-14.3 -41.28,-23.99 0.05,14.31" style="fill:#c9d4ff;fill-opacity:1;fill-rule:nonzero;stroke:none" id="path28"/>
      <path d="m 1738.79,1892.46 41.28,23.99 105.18,-60.74 -41.26,-23.98 -105.2,60.73" style="fill:#d3d9f2;fill-opacity:1;fill-rule:nonzero;stroke:none" id="path30"/>
      <path d="m 1843.99,1831.73 -0.05,-14.31 -97.59,56.35 -42.24,-68.99 -63.56,36.69 0.05,14.33 55.96,-32.32 42.23,68.98 105.2,-60.73" style="fill:#c9d4ff;fill-opacity:1;fill-rule:nonzero;stroke:none" id="path32"/>
      <path d="m 1787.41,1943.25 41.27,23.99 55.97,-32.32 -41.27,-23.98 -55.97,32.31" style="fill:#d3d9f2;fill-opacity:1;fill-rule:nonzero;stroke:none" id="path34"/>
      <path d="m 1893.16,1961.23 41.27,23.98 -42.23,-69 -41.27,-23.98 42.23,69" style="fill:#9bb0ff;fill-opacity:1;fill-rule:nonzero;stroke:none" id="path36"/>
      <path d="m 1990.8,1919.18 41.27,23.98 -0.04,-14.3 -41.27,-23.99 0.04,14.31" style="fill:#c9d4ff;fill-opacity:1;fill-rule:nonzero;stroke:none" id="path38"/>
      <path d="m 1885.61,1979.91 41.27,23.99 105.19,-60.74 -41.27,-23.98 -105.19,60.73" style="fill:#d3d9f2;fill-opacity:1;fill-rule:nonzero;stroke:none" id="path40"/>
      <path d="m 1990.8,1919.18 -0.04,-14.31 -97.6,56.36 -42.23,-69 -63.56,36.7 0.04,14.32 55.97,-32.31 42.23,68.97 105.19,-60.73" style="fill:#c9d4ff;fill-opacity:1;fill-rule:nonzero;stroke:none" id="path42"/>
      <path d="m 1335.75,1673.52 41.27,23.98 55.97,-32.31 -41.27,-23.98 -55.97,32.31" style="fill:#d3d9f2;fill-opacity:1;fill-rule:nonzero;stroke:none" id="path44"/>
      <path d="m 1441.5,1691.49 41.27,23.98 -42.23,-68.99 -41.27,-23.98 42.23,68.99" style="fill:#9bb0ff;fill-opacity:1;fill-rule:nonzero;stroke:none" id="path46"/>
      <path d="m 1539.14,1649.45 41.27,23.98 -0.04,-14.3 -41.27,-23.99 0.04,14.31" style="fill:#c9d4ff;fill-opacity:1;fill-rule:nonzero;stroke:none" id="path48"/>
      <path d="m 1433.95,1710.18 41.28,23.99 105.18,-60.74 -41.27,-23.98 -105.19,60.73" style="fill:#d3d9f2;fill-opacity:1;fill-rule:nonzero;stroke:none" id="path50"/>
      <path d="m 1539.14,1649.45 -0.04,-14.31 -97.6,56.35 -42.23,-68.99 -63.56,36.69 0.04,14.33 55.97,-32.31 42.23,68.97 105.19,-60.73" style="fill:#c9d4ff;fill-opacity:1;fill-rule:nonzero;stroke:none" id="path52"/>
      <path d="m 1950.62,2035.47 41.27,23.99 55.97,-32.31 -41.27,-23.99 -55.97,32.31" style="fill:#d3d9f2;fill-opacity:1;fill-rule:nonzero;stroke:none" id="path54"/>
      <path d="m 2056.37,2053.44 41.27,23.99 -42.23,-68.99 -41.27,-23.99 42.23,68.99" style="fill:#9bb0ff;fill-opacity:1;fill-rule:nonzero;stroke:none" id="path56"/>
      <path d="m 2154.01,2011.41 41.27,23.98 -0.04,-14.31 -41.27,-23.98 0.04,14.31" style="fill:#c9d4ff;fill-opacity:1;fill-rule:nonzero;stroke:none" id="path58"/>
      <path d="m 2048.82,2072.14 41.27,23.98 105.19,-60.73 -41.27,-23.98 -105.19,60.73" style="fill:#d3d9f2;fill-opacity:1;fill-rule:nonzero;stroke:none" id="path60"/>
      <path d="m 2154.01,2011.41 -0.04,-14.31 -97.6,56.34 -42.23,-68.99 -63.56,36.7 0.04,14.32 55.97,-32.31 42.23,68.98 105.19,-60.73" style="fill:#c9d4ff;fill-opacity:1;fill-rule:nonzero;stroke:none" id="path62"/>
      <path d="m 2107.47,2124.53 41.27,23.99 55.97,-32.31 -41.27,-23.99 -55.97,32.31" style="fill:#d3d9f2;fill-opacity:1;fill-rule:nonzero;stroke:none" id="path64"/>
      <path d="m 2213.22,2142.5 41.27,23.99 -42.23,-68.99 -41.27,-23.99 42.23,68.99" style="fill:#9bb0ff;fill-opacity:1;fill-rule:nonzero;stroke:none" id="path66"/>
      <path d="m 2310.87,2100.47 41.26,23.98 -0.03,-14.31 -41.28,-23.99 0.05,14.32" style="fill:#c9d4ff;fill-opacity:1;fill-rule:nonzero;stroke:none" id="path68"/>
      <path d="m 2205.67,2161.19 41.28,23.99 105.18,-60.73 -41.26,-23.98 -105.2,60.72" style="fill:#d3d9f2;fill-opacity:1;fill-rule:nonzero;stroke:none" id="path70"/>
      <path d="m 2310.87,2100.47 -0.05,-14.32 -97.6,56.35 -42.23,-68.99 -63.56,36.69 0.04,14.33 55.97,-32.31 42.23,68.97 105.2,-60.72" style="fill:#c9d4ff;fill-opacity:1;fill-rule:nonzero;stroke:none" id="path72"/>
      <path d="m 3167.38,1766.35 -41.27,23.98 -55.97,-32.31 41.28,-23.99 55.96,32.32" style="fill:#d3d9f2;fill-opacity:1;fill-rule:nonzero;stroke:none" id="path74"/>
      <path d="m 3061.63,1784.32 -41.27,23.98 42.24,-68.99 41.27,-23.98 -42.24,68.99" style="fill:#9bb0ff;fill-opacity:1;fill-rule:nonzero;stroke:none" id="path76"/>
      <path d="m 2963.99,1742.28 -41.27,23.98 0.05,-14.3 41.26,-23.99 -0.04,14.31" style="fill:#c9d4ff;fill-opacity:1;fill-rule:nonzero;stroke:none" id="path78"/>
      <path d="m 3069.18,1803.01 -41.27,23.98 -105.19,-60.73 41.27,-23.98 105.19,60.73" style="fill:#d3d9f2;fill-opacity:1;fill-rule:nonzero;stroke:none" id="path80"/>
      <path d="m 2963.99,1742.28 0.04,-14.31 97.6,56.35 42.24,-68.99 63.55,36.69 -0.04,14.33 -55.96,-32.32 -42.24,68.98 -105.19,-60.73" style="fill:#c9d4ff;fill-opacity:1;fill-rule:nonzero;stroke:none" id="path82"/>
      <path d="m 3014.08,1853.66 -41.27,23.98 -55.96,-32.31 41.27,-23.98 55.96,32.31" style="fill:#d3d9f2;fill-opacity:1;fill-rule:nonzero;stroke:none" id="path84"/>
      <path d="m 2908.33,1871.64 -41.27,23.98 42.23,-69 41.27,-23.98 -42.23,69" style="fill:#9bb0ff;fill-opacity:1;fill-rule:nonzero;stroke:none" id="path86"/>
      <path d="m 2810.69,1829.59 -41.27,23.98 0.04,-14.3 41.28,-23.99 -0.05,14.31" style="fill:#c9d4ff;fill-opacity:1;fill-rule:nonzero;stroke:none" id="path88"/>
      <path d="m 2915.89,1890.32 -41.28,23.98 -105.19,-60.73 41.27,-23.98 105.2,60.73" style="fill:#d3d9f2;fill-opacity:1;fill-rule:nonzero;stroke:none" id="path90"/>
      <path d="m 2810.69,1829.59 0.05,-14.31 97.59,56.36 42.23,-69 63.57,36.7 -0.05,14.32 -55.96,-32.31 -42.23,68.97 -105.2,-60.73" style="fill:#c9d4ff;fill-opacity:1;fill-rule:nonzero;stroke:none" id="path92"/>
      <path d="m 2867.27,1941.11 -41.27,23.98 -55.97,-32.31 41.27,-23.98 55.97,32.31" style="fill:#d3d9f2;fill-opacity:1;fill-rule:nonzero;stroke:none" id="path94"/>
      <path d="m 2761.52,1959.08 -41.27,23.99 42.23,-69 41.27,-23.98 -42.23,68.99" style="fill:#9bb0ff;fill-opacity:1;fill-rule:nonzero;stroke:none" id="path96"/>
      <path d="m 2663.88,1917.04 -41.27,23.98 0.04,-14.3 41.27,-23.98 -0.04,14.3" style="fill:#c9d4ff;fill-opacity:1;fill-rule:nonzero;stroke:none" id="path98"/>
      <path d="m 2769.07,1977.77 -41.27,23.99 -105.19,-60.74 41.27,-23.98 105.19,60.73" style="fill:#d3d9f2;fill-opacity:1;fill-rule:nonzero;stroke:none" id="path100"/>
      <path d="m 2663.88,1917.04 0.04,-14.3 97.6,56.34 42.23,-68.99 63.56,36.69 -0.04,14.33 -55.97,-32.31 -42.23,68.97 -105.19,-60.73" style="fill:#c9d4ff;fill-opacity:1;fill-rule:nonzero;stroke:none" id="path102"/>
      <path d="m 3318.93,1671.38 -41.27,23.99 -55.97,-32.32 41.27,-23.99 55.97,32.32" style="fill:#d3d9f2;fill-opacity:1;fill-rule:nonzero;stroke:none" id="path104"/>
      <path d="m 3213.18,1689.35 -41.27,23.98 42.23,-68.99 41.27,-23.98 -42.23,68.99" style="fill:#9bb0ff;fill-opacity:1;fill-rule:nonzero;stroke:none" id="path106"/>
      <path d="m 3115.54,1647.31 -41.28,23.98 0.05,-14.3 41.27,-23.99 -0.04,14.31" style="fill:#c9d4ff;fill-opacity:1;fill-rule:nonzero;stroke:none" id="path108"/>
      <path d="m 3220.73,1708.04 -41.27,23.99 -105.2,-60.74 41.28,-23.98 105.19,60.73" style="fill:#d3d9f2;fill-opacity:1;fill-rule:nonzero;stroke:none" id="path110"/>
      <path d="m 3115.54,1647.31 0.04,-14.31 97.6,56.35 42.23,-68.99 63.56,36.69 -0.04,14.33 -55.97,-32.32 -42.23,68.98 -105.19,-60.73" style="fill:#c9d4ff;fill-opacity:1;fill-rule:nonzero;stroke:none" id="path112"/>
      <path d="m 2704.06,2033.33 -41.27,23.99 -55.97,-32.31 41.28,-23.99 55.96,32.31" style="fill:#d3d9f2;fill-opacity:1;fill-rule:nonzero;stroke:none" id="path114"/>
      <path d="m 2598.31,2051.31 -41.27,23.98 42.23,-68.99 41.27,-23.99 -42.23,69" style="fill:#9bb0ff;fill-opacity:1;fill-rule:nonzero;stroke:none" id="path116"/>
      <path d="m 2500.67,2009.27 -41.27,23.98 0.04,-14.31 41.27,-23.98 -0.04,14.31" style="fill:#c9d4ff;fill-opacity:1;fill-rule:nonzero;stroke:none" id="path118"/>
      <path d="m 2605.86,2069.99 -41.27,23.99 -105.19,-60.73 41.27,-23.98 105.19,60.72" style="fill:#d3d9f2;fill-opacity:1;fill-rule:nonzero;stroke:none" id="path120"/>
      <path d="m 2500.67,2009.27 0.04,-14.31 97.6,56.35 42.23,-69 63.56,36.7 -0.04,14.32 -55.96,-32.31 -42.24,68.97 -105.19,-60.72" style="fill:#c9d4ff;fill-opacity:1;fill-rule:nonzero;stroke:none" id="path122"/>
      <path d="m 2547.21,2122.39 -41.28,23.99 -55.96,-32.32 41.27,-23.98 55.97,32.31" style="fill:#d3d9f2;fill-opacity:1;fill-rule:nonzero;stroke:none" id="path124"/>
      <path d="m 2441.46,2140.37 -41.28,23.98 42.24,-68.99 41.27,-23.99 -42.23,69" style="fill:#9bb0ff;fill-opacity:1;fill-rule:nonzero;stroke:none" id="path126"/>
      <path d="m 2343.82,2098.32 -41.28,23.99 0.04,-14.31 41.28,-23.99 -0.04,14.31" style="fill:#c9d4ff;fill-opacity:1;fill-rule:nonzero;stroke:none" id="path128"/>
      <path d="m 2449.01,2159.05 -41.28,23.99 -105.19,-60.73 41.28,-23.99 105.19,60.73" style="fill:#d3d9f2;fill-opacity:1;fill-rule:nonzero;stroke:none" id="path130"/>
      <path d="m 2343.82,2098.32 0.04,-14.31 97.6,56.36 42.23,-69 63.56,36.7 -0.04,14.32 -55.97,-32.31 -42.23,68.97 -105.19,-60.73" style="fill:#c9d4ff;fill-opacity:1;fill-rule:nonzero;stroke:none" id="path132"/>
      <path d="m 3218.67,1673.08 -0.29,-98.84 -884.51,-514.03 0.28,98.84 884.52,514.03" style="fill:#072ba4;fill-opacity:1;fill-rule:nonzero;stroke:none" id="path134"/>
      <path d="m 2334.15,1159.05 -0.28,-98.84 -890.3,514.02 0.28,98.84 890.3,-514.02" style="fill:#041f7a;fill-opacity:1;fill-rule:nonzero;stroke:none" id="path136"/>
      <path d="m 3218.67,1673.08 -884.52,-514.03 -890.3,514.02 884.51,514.03 890.31,-514.02" style="fill:#1f51fe;fill-opacity:1;fill-rule:nonzero;stroke:none" id="path138"/>
      <path d="m 3006.67,1698.15 -0.15,-49.42 -673.27,-391.27 0.14,49.42 673.28,391.27" style="fill:#c9d4ff;fill-opacity:1;fill-rule:nonzero;stroke:none" id="path140"/>
      <path d="m 2333.39,1306.88 -0.14,-49.42 -677.68,391.26 0.14,49.42 677.68,-391.26" style="fill:#d8e0ff;fill-opacity:1;fill-rule:nonzero;stroke:none" id="path142"/>
      <path d="m 3006.67,1698.15 -673.28,-391.27 -677.68,391.26 673.28,391.26 677.68,-391.25" style="fill:#ffffff;fill-opacity:1;fill-rule:nonzero;stroke:none" id="path144"/>
      <path d="m 1371.22,1418.14 -41.27,23.99 41.7,117.43 41.28,-23.98 -41.71,-117.44" style="fill:#d8e0ff;fill-opacity:1;fill-rule:nonzero;stroke:none" id="path146"/>
      <path d="m 1412.93,1535.58 -41.28,23.98 105.19,60.73 41.28,-23.98 -105.19,-60.73" style="fill:#d3d9f2;fill-opacity:1;fill-rule:nonzero;stroke:none" id="path148"/>
      <path d="m 1315.23,1385.82 -41.27,23.98 55.99,32.33 41.27,-23.99 -55.99,-32.32" style="fill:#d3d9f2;fill-opacity:1;fill-rule:nonzero;stroke:none" id="path150"/>
      <path d="m 1315.27,1371.49 -41.27,23.98 -0.04,14.33 41.27,-23.98 0.04,-14.33" style="fill:#9bb0ff;fill-opacity:1;fill-rule:nonzero;stroke:none" id="path152"/>
      <path d="m 1518.12,1596.31 0.04,-14.31 -97.62,-56.36 -41.69,-117.45 -63.58,-36.7 -0.04,14.33 55.99,32.32 41.71,117.44 105.19,60.73" style="fill:#c9d4ff;fill-opacity:1;fill-rule:nonzero;stroke:none" id="path154"/>
      <path d="m 1526.4,1329.32 -41.27,23.99 41.71,117.43 41.26,-23.98 -41.7,-117.44" style="fill:#d8e0ff;fill-opacity:1;fill-rule:nonzero;stroke:none" id="path156"/>
      <path d="m 1568.1,1446.76 -41.26,23.98 105.18,60.74 41.28,-23.99 -105.2,-60.73" style="fill:#d3d9f2;fill-opacity:1;fill-rule:nonzero;stroke:none" id="path158"/>
      <path d="m 1470.41,1297 -41.27,23.99 55.99,32.32 41.27,-23.99 -55.99,-32.32" style="fill:#d3d9f2;fill-opacity:1;fill-rule:nonzero;stroke:none" id="path160"/>
      <path d="m 1470.46,1282.67 -41.28,23.99 -0.04,14.33 41.27,-23.99 0.05,-14.33" style="fill:#9bb0ff;fill-opacity:1;fill-rule:nonzero;stroke:none" id="path162"/>
      <path d="m 1673.3,1507.49 0.04,-14.31 -97.63,-56.35 -41.68,-117.45 -63.57,-36.71 -0.05,14.33 55.99,32.32 41.7,117.44 105.2,60.73" style="fill:#c9d4ff;fill-opacity:1;fill-rule:nonzero;stroke:none" id="path164"/>
      <path d="m 1680.34,1239.59 -41.27,23.98 41.71,117.44 41.27,-23.98 -41.71,-117.44" style="fill:#d8e0ff;fill-opacity:1;fill-rule:nonzero;stroke:none" id="path166"/>
      <path d="m 1722.05,1357.03 -41.27,23.98 105.19,60.73 41.27,-23.98 -105.19,-60.73" style="fill:#d3d9f2;fill-opacity:1;fill-rule:nonzero;stroke:none" id="path168"/>
      <path d="m 1624.35,1207.26 -41.27,23.99 55.99,32.32 41.27,-23.98 -55.99,-32.33" style="fill:#d3d9f2;fill-opacity:1;fill-rule:nonzero;stroke:none" id="path170"/>
      <path d="m 1624.4,1192.94 -41.28,23.98 -0.04,14.33 41.27,-23.99 0.05,-14.32" style="fill:#9bb0ff;fill-opacity:1;fill-rule:nonzero;stroke:none" id="path172"/>
      <path d="m 1827.24,1417.76 0.04,-14.31 -97.62,-56.36 -41.69,-117.45 -63.57,-36.7 -0.05,14.32 55.99,32.33 41.71,117.44 105.19,60.73" style="fill:#c9d4ff;fill-opacity:1;fill-rule:nonzero;stroke:none" id="path174"/>
      <path d="m 1834.23,1150.5 -41.27,23.98 41.71,117.44 41.27,-23.98 -41.71,-117.44" style="fill:#d8e0ff;fill-opacity:1;fill-rule:nonzero;stroke:none" id="path176"/>
      <path d="m 1875.94,1267.94 -41.27,23.98 105.19,60.73 41.28,-23.98 -105.2,-60.73" style="fill:#d3d9f2;fill-opacity:1;fill-rule:nonzero;stroke:none" id="path178"/>
      <path d="m 1778.25,1118.17 -41.28,23.99 55.99,32.32 41.27,-23.98 -55.98,-32.33" style="fill:#d3d9f2;fill-opacity:1;fill-rule:nonzero;stroke:none" id="path180"/>
      <path d="m 1778.29,1103.84 -41.28,23.99 -0.04,14.33 41.28,-23.99 0.04,-14.33" style="fill:#9bb0ff;fill-opacity:1;fill-rule:nonzero;stroke:none" id="path182"/>
      <path d="m 1981.14,1328.67 0.04,-14.3 -97.63,-56.37 -41.68,-117.45 -63.58,-36.71 -0.04,14.33 55.98,32.33 41.71,117.44 105.2,60.73" style="fill:#c9d4ff;fill-opacity:1;fill-rule:nonzero;stroke:none" id="path184"/>
      <path d="m 1990.08,1062.02 -41.27,23.99 41.71,117.44 41.27,-23.99 -41.71,-117.44" style="fill:#d8e0ff;fill-opacity:1;fill-rule:nonzero;stroke:none" id="path186"/>
      <path d="m 2031.79,1179.46 -41.27,23.99 105.19,60.73 41.28,-23.99 -105.2,-60.73" style="fill:#d3d9f2;fill-opacity:1;fill-rule:nonzero;stroke:none" id="path188"/>
      <path d="m 1934.09,1029.69 -41.27,23.99 55.99,32.33 41.27,-23.99 -55.99,-32.33" style="fill:#d3d9f2;fill-opacity:1;fill-rule:nonzero;stroke:none" id="path190"/>
      <path d="m 1934.13,1015.37 -41.27,23.98 -0.04,14.33 41.27,-23.99 0.04,-14.32" style="fill:#9bb0ff;fill-opacity:1;fill-rule:nonzero;stroke:none" id="path192"/>
      <path d="m 2136.99,1240.19 0.03,-14.3 -97.62,-56.36 -41.69,-117.45 -63.58,-36.71 -0.04,14.32 55.99,32.33 41.71,117.44 105.2,60.73" style="fill:#c9d4ff;fill-opacity:1;fill-rule:nonzero;stroke:none" id="path194"/>
      <path d="m 2142.93,972.781 -41.27,23.989 41.7,117.44 41.27,-23.99 -41.7,-117.439" style="fill:#d8e0ff;fill-opacity:1;fill-rule:nonzero;stroke:none" id="path196"/>
      <path d="m 2184.63,1090.22 -41.27,23.99 105.19,60.74 41.28,-24 -105.2,-60.73" style="fill:#d3d9f2;fill-opacity:1;fill-rule:nonzero;stroke:none" id="path198"/>
      <path d="m 2086.94,940.461 -41.27,23.98 55.99,32.329 41.27,-23.989 -55.99,-32.32" style="fill:#d3d9f2;fill-opacity:1;fill-rule:nonzero;stroke:none" id="path200"/>
      <path d="m 2086.98,926.129 -41.27,23.98 -0.04,14.332 41.27,-23.98 0.04,-14.332" style="fill:#9bb0ff;fill-opacity:1;fill-rule:nonzero;stroke:none" id="path202"/>
      <path d="m 2289.83,1150.95 0.04,-14.3 -97.63,-56.36 -41.68,-117.45 -63.58,-36.711 -0.04,14.332 55.99,32.32 41.7,117.439 105.2,60.73" style="fill:#c9d4ff;fill-opacity:1;fill-rule:nonzero;stroke:none" id="path204"/>
      <path d="m 3294.36,1416.52 41.27,23.98 -41.7,117.44 -41.28,-23.99 41.71,-117.43" style="fill:#d8e0ff;fill-opacity:1;fill-rule:nonzero;stroke:none" id="path206"/>
      <path d="m 3252.65,1533.95 41.28,23.99 -105.19,60.73 -41.27,-23.99 105.18,-60.73" style="fill:#d3d9f2;fill-opacity:1;fill-rule:nonzero;stroke:none" id="path208"/>
      <path d="m 3350.34,1384.19 41.28,23.98 -55.99,32.33 -41.27,-23.98 55.98,-32.33" style="fill:#d3d9f2;fill-opacity:1;fill-rule:nonzero;stroke:none" id="path210"/>
      <path d="m 3350.31,1369.87 41.27,23.98 0.04,14.32 -41.28,-23.98 -0.03,-14.32" style="fill:#9bb0ff;fill-opacity:1;fill-rule:nonzero;stroke:none" id="path212"/>
      <path d="m 3147.47,1594.68 -0.04,-14.3 97.61,-56.36 41.68,-117.45 63.59,-36.7 0.03,14.32 -55.98,32.33 -41.71,117.43 -105.18,60.73" style="fill:#c9d4ff;fill-opacity:1;fill-rule:nonzero;stroke:none" id="path214"/>
      <path d="m 3139.18,1327.7 41.27,23.99 -41.7,117.43 -41.28,-23.99 41.71,-117.43" style="fill:#d8e0ff;fill-opacity:1;fill-rule:nonzero;stroke:none" id="path216"/>
      <path d="m 3097.47,1445.13 41.28,23.99 -105.2,60.73 -41.26,-23.98 105.18,-60.74" style="fill:#d3d9f2;fill-opacity:1;fill-rule:nonzero;stroke:none" id="path218"/>
      <path d="m 3195.16,1295.38 41.28,23.98 -55.99,32.33 -41.27,-23.99 55.98,-32.32" style="fill:#d3d9f2;fill-opacity:1;fill-rule:nonzero;stroke:none" id="path220"/>
      <path d="m 3195.13,1281.05 41.27,23.99 0.04,14.32 -41.28,-23.98 -0.03,-14.33" style="fill:#9bb0ff;fill-opacity:1;fill-rule:nonzero;stroke:none" id="path222"/>
      <path d="m 2992.29,1505.87 -0.05,-14.3 97.62,-56.37 41.68,-117.44 63.59,-36.71 0.03,14.33 -55.98,32.32 -41.71,117.43 -105.18,60.74" style="fill:#c9d4ff;fill-opacity:1;fill-rule:nonzero;stroke:none" id="path224"/>
      <path d="m 2985.23,1237.97 41.28,23.98 -41.71,117.43 -41.27,-23.98 41.7,-117.43" style="fill:#d8e0ff;fill-opacity:1;fill-rule:nonzero;stroke:none" id="path226"/>
      <path d="m 2943.53,1355.4 41.27,23.98 -105.19,60.74 -41.27,-23.99 105.19,-60.73" style="fill:#d3d9f2;fill-opacity:1;fill-rule:nonzero;stroke:none" id="path228"/>
      <path d="m 3041.22,1205.64 41.28,23.99 -55.99,32.32 -41.28,-23.98 55.99,-32.33" style="fill:#d3d9f2;fill-opacity:1;fill-rule:nonzero;stroke:none" id="path230"/>
      <path d="m 3041.18,1191.31 41.28,23.99 0.04,14.33 -41.28,-23.99 -0.04,-14.33" style="fill:#9bb0ff;fill-opacity:1;fill-rule:nonzero;stroke:none" id="path232"/>
      <path d="m 2838.34,1416.13 -0.04,-14.31 97.62,-56.35 41.69,-117.45 63.57,-36.71 0.04,14.33 -55.99,32.33 -41.7,117.43 -105.19,60.73" style="fill:#c9d4ff;fill-opacity:1;fill-rule:nonzero;stroke:none" id="path234"/>
      <path d="m 2831.34,1148.87 41.27,23.99 -41.7,117.44 -41.27,-23.99 41.7,-117.44" style="fill:#d8e0ff;fill-opacity:1;fill-rule:nonzero;stroke:none" id="path236"/>
      <path d="m 2789.64,1266.31 41.27,23.99 -105.2,60.73 -41.27,-23.98 105.2,-60.74" style="fill:#d3d9f2;fill-opacity:1;fill-rule:nonzero;stroke:none" id="path238"/>
      <path d="m 2887.33,1116.55 41.27,23.98 -55.99,32.33 -41.27,-23.99 55.99,-32.32" style="fill:#d3d9f2;fill-opacity:1;fill-rule:nonzero;stroke:none" id="path240"/>
      <path d="m 2887.29,1102.22 41.28,23.98 0.03,14.33 -41.27,-23.98 -0.04,-14.33" style="fill:#9bb0ff;fill-opacity:1;fill-rule:nonzero;stroke:none" id="path242"/>
      <path d="m 2684.44,1327.05 -0.04,-14.31 97.62,-56.36 41.69,-117.45 63.58,-36.71 0.04,14.33 -55.99,32.32 -41.7,117.44 -105.2,60.74" style="fill:#c9d4ff;fill-opacity:1;fill-rule:nonzero;stroke:none" id="path244"/>
      <path d="m 2675.49,1060.4 41.28,23.98 -41.7,117.44 -41.28,-23.98 41.7,-117.44" style="fill:#d8e0ff;fill-opacity:1;fill-rule:nonzero;stroke:none" id="path246"/>
      <path d="m 2633.79,1177.84 41.28,23.98 -105.2,60.74 -41.28,-23.99 105.2,-60.73" style="fill:#d3d9f2;fill-opacity:1;fill-rule:nonzero;stroke:none" id="path248"/>
      <path d="m 2731.49,1028.07 41.27,23.99 -55.99,32.32 -41.28,-23.98 56,-32.33" style="fill:#d3d9f2;fill-opacity:1;fill-rule:nonzero;stroke:none" id="path250"/>
      <path d="m 2731.44,1013.74 41.28,23.99 0.04,14.33 -41.27,-23.99 -0.05,-14.33" style="fill:#9bb0ff;fill-opacity:1;fill-rule:nonzero;stroke:none" id="path252"/>
      <path d="m 2528.59,1238.57 -0.03,-14.31 97.62,-56.36 41.68,-117.45 63.58,-36.71 0.05,14.33 -56,32.33 -41.7,117.44 -105.2,60.73" style="fill:#c9d4ff;fill-opacity:1;fill-rule:nonzero;stroke:none" id="path254"/>
      <path d="m 2522.65,971.16 41.27,23.988 -41.7,117.432 -41.28,-23.98 41.71,-117.44" style="fill:#d8e0ff;fill-opacity:1;fill-rule:nonzero;stroke:none" id="path256"/>
      <path d="m 2480.94,1088.6 41.28,23.98 -105.2,60.74 -41.27,-23.98 105.19,-60.74" style="fill:#d3d9f2;fill-opacity:1;fill-rule:nonzero;stroke:none" id="path258"/>
      <path d="m 2578.64,938.832 41.28,23.988 -56,32.328 -41.27,-23.988 55.99,-32.328" style="fill:#d3d9f2;fill-opacity:1;fill-rule:nonzero;stroke:none" id="path260"/>
      <path d="m 2578.6,924.5 41.27,23.988 0.05,14.332 -41.28,-23.988 -0.04,-14.332" style="fill:#9bb0ff;fill-opacity:1;fill-rule:nonzero;stroke:none" id="path262"/>
      <path d="m 2375.75,1149.34 -0.04,-14.32 97.62,-56.36 41.68,-117.449 63.59,-36.711 0.04,14.332 -55.99,32.328 -41.71,117.44 -105.19,60.74" style="fill:#c9d4ff;fill-opacity:1;fill-rule:nonzero;stroke:none" id="path264"/>
      <path d="m 1889.46,1698.15 33.08,-19.1 407.19,-235.11 v 510.08 l -440.27,-255.87" style="fill:#c9d4ff;fill-opacity:1;fill-rule:nonzero;stroke:none" id="path266"/>
      <path d="m 2329.73,1954.02 v -510.08 l 2.89,-1.67 407.22,236.66 33.08,19.22 -443.19,255.87" style="fill:#d8e0ff;fill-opacity:1;fill-rule:nonzero;stroke:none" id="path268"/>
      <path d="m 2739.84,1678.93 -407.22,-236.66 -410.08,236.78 407.19,236.66 410.11,-236.78" style="fill:#1f51fe;fill-opacity:1;fill-rule:nonzero;stroke:none" id="path270"/>
      <path d="m 2739.84,1678.93 -407.22,-236.66 -410.08,236.78 407.19,236.66 410.11,-236.78" style="fill:#1f51fe;fill-opacity:1;fill-rule:nonzero;stroke:none" id="path272"/>
      <path d="m 2551.32,1714.21 -0.07,-24.71 -48.32,-28.08 0.07,24.71 48.32,28.08" style="fill:#c9d4ff;fill-opacity:1;fill-rule:nonzero;stroke:none" id="path274"/>
      <path d="m 2503,1686.13 -0.07,-24.71 -216.03,124.73 0.07,24.7 216.03,-124.72" style="fill:#d8e0ff;fill-opacity:1;fill-rule:nonzero;stroke:none" id="path276"/>
      <path d="m 2551.32,1714.21 -48.32,-28.08 -216.03,124.72 48.32,28.09 216.03,-124.73" style="fill:#eeeff2;fill-opacity:1;fill-rule:nonzero;stroke:none" id="path278"/>
      <path d="m 2310.9,1673.46 -0.07,-24.71 c -12.66,3.5 -24.79,6.8 -36.4,9.94 -11.62,3.14 -22.34,5.95 -32.19,8.43 -9.85,2.48 -18.53,4.65 -26,6.57 -7.5,1.9 -13.41,3.35 -17.78,4.38 l 0.07,24.71 c 4.37,-1.03 10.28,-2.48 17.77,-4.39 7.48,-1.9 16.15,-4.08 26.01,-6.56 9.85,-2.49 20.57,-5.29 32.19,-8.43 11.61,-3.14 23.74,-6.45 36.4,-9.94" style="fill:#041f7a;fill-opacity:1;fill-rule:nonzero;stroke:none" id="path280"/>
      <g id="g282">
        <g id="g284" clip-path="url(#clipPath288)">
          <path d="m 2310.9,1673.46 -0.07,-24.71 c -12.66,3.5 -24.79,6.8 -36.4,9.94 -11.62,3.14 -22.34,5.95 -32.19,8.43 -9.85,2.48 -18.53,4.65 -26,6.57 -7.5,1.9 -13.41,3.35 -17.78,4.38 l 0.07,24.71 c 4.37,-1.03 10.28,-2.48 17.77,-4.39 7.48,-1.9 16.15,-4.08 26.01,-6.56 9.85,-2.49 20.57,-5.29 32.19,-8.43 11.61,-3.14 23.74,-6.45 36.4,-9.94" style="fill:#d8e0ff;fill-opacity:1;fill-rule:nonzero;stroke:none" id="path290"/>
        </g>
      </g>
      <path d="m 2392.87,1648.92 -0.07,-24.71 c -10.67,2.97 -21.3,5.92 -31.84,8.87 l 0.06,24.71 c 10.56,-2.95 21.18,-5.9 31.85,-8.87" style="fill:#041f7a;fill-opacity:1;fill-rule:nonzero;stroke:none" id="path292"/>
      <g id="g294">
        <g id="g296" clip-path="url(#clipPath300)">
          <path d="m 2392.87,1648.92 -0.07,-24.71 c -10.67,2.97 -21.3,5.92 -31.84,8.87 l 0.06,24.71 c 10.56,-2.95 21.18,-5.9 31.85,-8.87" style="fill:#d8e0ff;fill-opacity:1;fill-rule:nonzero;stroke:none" id="path302"/>
        </g>
      </g>
      <path d="m 2423.68,1640.04 -0.07,-24.72 c -9.88,2.95 -20.15,5.92 -30.81,8.89 l 0.07,24.71 c 10.66,-2.97 20.92,-5.93 30.81,-8.88" style="fill:#041f7a;fill-opacity:1;fill-rule:nonzero;stroke:none" id="path304"/>
      <g id="g306">
        <g id="g308" clip-path="url(#clipPath312)">
          <path d="m 2423.68,1640.04 -0.07,-24.72 c -9.88,2.95 -20.15,5.92 -30.81,8.89 l 0.07,24.71 c 10.66,-2.97 20.92,-5.93 30.81,-8.88" style="fill:#d8e0ff;fill-opacity:1;fill-rule:nonzero;stroke:none" id="path314"/>
        </g>
      </g>
      <path d="m 2475.43,1670.11 -0.07,-24.72 -51.75,-30.07 0.07,24.72 51.75,30.07" style="fill:#c9d4ff;fill-opacity:1;fill-rule:nonzero;stroke:none" id="path316"/>
      <path d="m 2361.02,1657.79 -0.06,-24.71 -83.84,-48.72 0.07,24.71 83.83,48.72" style="fill:#c9d4ff;fill-opacity:1;fill-rule:nonzero;stroke:none" id="path318"/>
      <path d="m 2258.01,1543.76 -0.06,-24.71 c -15.21,18.13 -29.04,35.01 -41.53,50.62 -12.49,15.61 -24.04,30.47 -34.53,44.57 -10.54,14.13 -20.26,27.67 -29.23,40.64 -8.94,12.97 -17.29,25.87 -25.01,38.72 l 0.07,24.71 c 7.72,-12.85 16.07,-25.76 25.01,-38.72 8.97,-12.97 18.69,-26.52 29.23,-40.64 10.49,-14.1 22.04,-28.96 34.53,-44.58 12.49,-15.6 26.32,-32.48 41.52,-50.61" style="fill:#041f7a;fill-opacity:1;fill-rule:nonzero;stroke:none" id="path320"/>
      <g id="g322">
        <g id="g324" clip-path="url(#clipPath328)">
          <path d="m 2258.01,1543.76 -0.06,-24.71 c -15.21,18.13 -29.04,35.01 -41.53,50.62 -12.49,15.61 -24.04,30.47 -34.53,44.57 -10.54,14.13 -20.26,27.67 -29.23,40.64 -8.94,12.97 -17.29,25.87 -25.01,38.72 l 0.07,24.71 c 7.72,-12.85 16.07,-25.76 25.01,-38.72 8.97,-12.97 18.69,-26.52 29.23,-40.64 10.49,-14.1 22.04,-28.96 34.53,-44.58 12.49,-15.6 26.32,-32.48 41.52,-50.61" style="fill:#d8e0ff;fill-opacity:1;fill-rule:nonzero;stroke:none" id="path330"/>
        </g>
      </g>
      <path d="m 2308.18,1572.91 -0.07,-24.71 -50.16,-29.15 0.06,24.71 50.17,29.15" style="fill:#c9d4ff;fill-opacity:1;fill-rule:nonzero;stroke:none" id="path332"/>
      <path d="m 2249.52,1637.79 61.38,35.67 c -12.66,3.49 -24.79,6.8 -36.4,9.94 -11.62,3.14 -22.34,5.94 -32.19,8.43 -9.86,2.48 -18.53,4.66 -26.01,6.56 -7.49,1.91 -13.4,3.36 -17.77,4.39 2.06,-2.44 4.76,-5.82 8.08,-10.15 3.33,-4.32 7.24,-9.29 11.64,-14.92 4.44,-5.63 9.25,-11.86 14.48,-18.67 5.25,-6.81 10.83,-13.91 16.79,-21.25 z m 143.35,11.13 c -10.67,2.97 -21.29,5.92 -31.85,8.87 l -83.83,-48.72 c 5.17,-6.12 10.35,-12.26 15.54,-18.42 5.18,-6.15 10.36,-12.06 15.45,-17.74 l -50.17,-29.15 c -15.2,18.13 -29.03,35.01 -41.52,50.61 -12.49,15.62 -24.04,30.48 -34.53,44.58 -10.54,14.12 -20.26,27.67 -29.23,40.64 -8.94,12.96 -17.29,25.87 -25.01,38.72 l 45.8,26.62 c 22.02,-4.54 44.3,-9.36 66.82,-14.43 22.54,-5.09 46.01,-10.64 70.44,-16.68 24.39,-6.03 50.1,-12.66 77.11,-19.84 27.01,-7.17 56.18,-15.13 87.54,-23.87 l -51.75,-30.07 c -9.89,2.95 -20.15,5.91 -30.81,8.88" style="fill:#eeeff2;fill-opacity:1;fill-rule:nonzero;stroke:none" id="path334"/>
      <path d="M 911.301,1514.82 2335.94,692.309 3751.22,1514.78 2326.58,2337.29 Z M 2335.97,669.801 872.449,1514.77 2326.55,2359.79 3790.06,1514.84 2335.97,669.801" style="fill:#1f51fe;fill-opacity:1;fill-rule:nonzero;stroke:none" id="path336"/>
      <path d="m 1099.43,1394.97 -108.196,-62.46 c -1.609,-0.92 -3.558,-0.92 -5.129,0 l -110.972,64.07 -360.199,-207.97 -33.575,-19.38 -2.562,-0.68 c -1.777,0 -3.488,0.92 -4.442,2.56 -1.402,2.43 -0.582,5.58 1.879,7.01 l 28.309,16.34 368.023,212.47 c 1.571,0.9 3.524,0.9 5.129,0 l 110.977,-64.06 100.508,58.01 10.25,-5.91" style="fill:#1f51fe;fill-opacity:1;fill-rule:nonzero;stroke:none" id="path338"/>
      <path d="m 1971.99,901.031 -17.09,-9.84 -98.46,-56.859 c -1.57,-0.922 -3.52,-0.922 -5.13,0 l -110.93,64.066 -140.07,-80.847 -10.26,-5.922 -212.78,-122.867 -30.66,-17.711 -2.57,-0.68 c -1.77,0 -3.48,0.918 -4.44,2.57 -1.4,2.45 -0.58,5.571 1.88,7 l 27.32,15.758 211,121.852 10.25,5.91 147.76,85.301 c 1.57,0.918 3.52,0.918 5.13,0 l 110.94,-64.071 90.76,52.411 17.1,9.878 10.25,-5.949" style="fill:#1f51fe;fill-opacity:1;fill-rule:nonzero;stroke:none" id="path340"/>
      <path d="m 1635.25,1095.49 -17.09,-9.88 -95.73,-55.28 c -1.57,-0.89 -3.52,-0.89 -5.13,0 l -110.93,64.07 -142.77,-82.43 -10.26,-5.92 -204.54,-118.109 -36.2,-20.89 -2.57,-0.692 c -1.77,0 -3.48,0.93 -4.44,2.571 -1.4,2.461 -0.58,5.609 1.88,7.011 l 33.09,19.11 202.53,116.919 10.25,5.91 150.46,86.87 c 1.57,0.93 3.52,0.93 5.13,0 l 110.94,-64.07 88.03,50.84 17.1,9.88 10.25,-5.91" style="fill:#1f51fe;fill-opacity:1;fill-rule:nonzero;stroke:none" id="path342"/>
      <path d="m 1366.64,1250.56 -17.12,-9.88 -361.915,-208.95 -27.242,-15.72 -2.566,-0.69 c -1.777,0 -3.488,0.93 -4.445,2.56 -1.434,2.43 -0.582,5.58 1.882,7.02 l 22.629,13.05 361.397,208.68 17.12,9.88 10.26,-5.95" style="fill:#1f51fe;fill-opacity:1;fill-rule:nonzero;stroke:none" id="path344"/>
      <path d="m 2095.82,829.539 -17.09,-9.84 -356.92,-206.078 -27.59,-15.93 -2.56,-0.691 c -1.78,0 -3.49,0.93 -4.44,2.57 -1.44,2.461 -0.59,5.602 1.88,7.008 l 22.35,12.883 357.02,206.16 17.09,9.871 10.26,-5.953" style="fill:#1f51fe;fill-opacity:1;fill-rule:nonzero;stroke:none" id="path346"/>
      <path d="m 1750.46,1028.96 -17.09,-9.88 -241.06,-139.17 -10.25,-5.922 -109.3,-63.148 h -0.04 l -28.61,-16.508 -2.57,-0.684 c -1.77,0 -3.48,0.891 -4.44,2.571 -1.4,2.422 -0.58,5.57 1.88,6.972 l 23.7,13.668 109.16,63.051 10.22,5.91 241.05,139.18 17.09,9.87 10.26,-5.91" style="fill:#1f51fe;fill-opacity:1;fill-rule:nonzero;stroke:none" id="path348"/>
      <path d="m 1745.2,733.891 -135.21,-78.051 -37.78,-21.809 -5.13,8.891 33.98,19.617 123.62,71.352 -134.63,77.738 -10.25,5.922 -97.74,56.437 -10.22,5.922 -218.5,126.14 -10.25,5.92 -88.85,51.31 249.53,146.09 16.99,9.94 10.22,-5.88 -16.99,-9.94 -239.34,-140.17 78.69,-45.44 10.26,-5.91 218.46,-126.15 10.25,-5.91 97.74,-56.449 10.26,-5.91 144.89,-83.66" style="fill:#1f51fe;fill-opacity:1;fill-rule:nonzero;stroke:none" id="path350"/>
      <path d="m 510.602,1191.6 c 15.269,-8.81 15.269,-23.11 0,-31.92 -15.266,-8.81 -40.012,-8.81 -55.286,0 -15.261,8.81 -15.261,23.11 0,31.92 15.274,8.82 40.02,8.82 55.286,0" style="fill:#1f51fe;fill-opacity:1;fill-rule:nonzero;stroke:none" id="path352"/>
      <path d="m 1182.3,1206.94 c 0,-1.85 -0.95,-3.52 -2.56,-4.44 l -310.146,-179.08 -28.375,-16.37 -2.567,-0.68 c -1.773,0 -3.484,0.88 -4.445,2.56 -1.398,2.42 -0.582,5.57 1.883,6.97 l 23.551,13.61 307.279,177.43 -114.08,65.88 c -1.61,0.89 -2.57,2.59 -2.57,4.41 0,1.85 0.96,3.55 2.57,4.44 l 112.85,65.16 17.09,9.89 10.29,-5.93 -17.13,-9.87 -110.28,-63.69 114.08,-65.85 c 1.61,-0.92 2.56,-2.63 2.56,-4.44" style="fill:#1f51fe;fill-opacity:1;fill-rule:nonzero;stroke:none" id="path354"/>
      <path d="m 864.328,1027.22 c 15.266,-8.82 15.266,-23.11 0,-31.919 -15.269,-8.821 -40.023,-8.821 -55.285,0 -15.27,8.809 -15.27,23.099 0,31.919 15.262,8.81 40.016,8.81 55.285,0" style="fill:#1f51fe;fill-opacity:1;fill-rule:nonzero;stroke:none" id="path356"/>
      <path d="m 2162.66,647.879 c 0,-1.82 -0.96,-3.527 -2.57,-4.449 l -302.04,-174.391 -36.48,-21.059 -2.56,-0.679 c -1.75,0 -3.49,0.918 -4.45,2.558 -1.4,2.473 -0.54,5.61 1.88,7.012 l 31.77,18.328 299.07,172.68 -114.09,65.871 c -1.57,0.93 -2.56,2.602 -2.56,4.449 0,1.84 0.99,3.52 2.56,4.442 l 106.84,61.679 17.09,9.84 10.22,-5.91 -17.09,-9.852 -104.24,-60.199 114.08,-65.879 c 1.61,-0.922 2.57,-2.601 2.57,-4.441" style="fill:#1f51fe;fill-opacity:1;fill-rule:nonzero;stroke:none" id="path358"/>
      <path d="m 1852.54,473.082 c 15.26,-8.812 15.26,-23.113 0,-31.922 -15.27,-8.82 -40.02,-8.82 -55.29,0 -15.26,8.809 -15.26,23.11 0,31.922 15.27,8.809 40.02,8.809 55.29,0" style="fill:#1f51fe;fill-opacity:1;fill-rule:nonzero;stroke:none" id="path360"/>
      <path d="m 981.746,1036.02 c 15.262,-8.81 15.262,-23.1 0,-31.92 -15.273,-8.811 -40.019,-8.811 -55.285,0 -15.27,8.82 -15.27,23.11 0,31.92 15.266,8.81 40.012,8.81 55.285,0" style="fill:#1f51fe;fill-opacity:1;fill-rule:nonzero;stroke:none" id="path362"/>
      <path d="m 1040.45,895.121 c 15.27,-8.812 15.27,-23.101 0,-31.922 -15.26,-8.808 -40.02,-8.808 -55.282,0 -15.273,8.821 -15.273,23.11 0,31.922 15.262,8.82 40.022,8.82 55.282,0" style="fill:#1f51fe;fill-opacity:1;fill-rule:nonzero;stroke:none" id="path364"/>
      <path d="m 1367.75,814.398 c 15.27,-8.816 15.27,-23.109 0,-31.918 -15.26,-8.82 -40.01,-8.82 -55.28,0 -15.27,8.809 -15.27,23.102 0,31.918 15.27,8.813 40.02,8.813 55.28,0" style="fill:#1f51fe;fill-opacity:1;fill-rule:nonzero;stroke:none" id="path366"/>
      <path d="m 1369.22,695.512 c 15.27,-8.813 15.27,-23.114 0,-31.922 -15.27,-8.809 -40.02,-8.809 -55.28,0 -15.27,8.808 -15.27,23.109 0,31.922 15.26,8.808 40.01,8.808 55.28,0" style="fill:#1f51fe;fill-opacity:1;fill-rule:nonzero;stroke:none" id="path368"/>
      <path d="m 1602.59,661.762 c 15.26,-8.821 15.26,-23.114 0,-31.93 -15.27,-8.812 -40.02,-8.812 -55.29,0 -15.26,8.816 -15.26,23.109 0,31.93 15.27,8.808 40.02,8.808 55.29,0" style="fill:#1f51fe;fill-opacity:1;fill-rule:nonzero;stroke:none" id="path370"/>
      <path d="m 1717.52,616.602 c 15.27,-8.813 15.27,-23.102 0,-31.922 -15.26,-8.809 -40.02,-8.809 -55.28,0 -15.27,8.82 -15.27,23.109 0,31.922 15.26,8.808 40.02,8.808 55.28,0" style="fill:#1f51fe;fill-opacity:1;fill-rule:nonzero;stroke:none" id="path372"/>
      <path d="m 3870.65,1041.61 c -0.95,-1.64 -2.66,-2.56 -4.44,-2.56 l -2.57,0.68 -31.18,17.98 -307.34,177.47 c -1.61,0.92 -2.56,2.63 -2.56,4.44 0,1.85 0.95,3.52 2.56,4.45 l 114.08,65.88 -102.35,59.11 -17.06,9.84 10.19,5.95 17.09,-9.85 104.95,-60.61 c 1.61,-0.92 2.57,-2.6 2.57,-4.44 0,-1.85 -0.96,-3.53 -2.57,-4.45 l -114.08,-65.88 306.01,-176.68 24.82,-14.32 c 2.46,-1.4 3.29,-4.55 1.88,-7.01" style="fill:#1f51fe;fill-opacity:1;fill-rule:nonzero;stroke:none" id="path374"/>
      <path d="m 2809.03,427.129 c -0.95,-1.637 -2.66,-2.57 -4.44,-2.57 l -2.56,0.691 -30.23,17.43 -308.29,178.011 c -1.58,0.93 -2.57,2.641 -2.57,4.45 0,1.847 0.99,3.519 2.57,4.441 l 114.08,65.887 -100.24,57.871 -17.02,9.851 10.22,5.95 17.02,-9.852 102.84,-59.379 c 1.6,-0.922 2.56,-2.601 2.56,-4.441 0,-1.821 -0.96,-3.528 -2.56,-4.449 l -114.08,-65.879 307.41,-177.5 23.42,-13.512 c 2.45,-1.391 3.28,-4.539 1.87,-7" style="fill:#1f51fe;fill-opacity:1;fill-rule:nonzero;stroke:none" id="path376"/>
      <path d="m 3332.44,757.102 c -0.95,-1.641 -2.7,-2.563 -4.44,-2.563 l -2.56,0.68 -28.35,16.383 -233.26,134.66 c -1.6,0.918 -2.56,2.597 -2.56,4.437 0,1.852 0.96,3.531 2.56,4.449 l 86.5,49.954 -77.91,45.808 -10.16,5.98 -65.3,38.43 -16.89,9.95 10.19,5.91 16.89,-9.94 65.33,-38.44 10.16,-5.98 80.47,-47.34 c 1.58,-0.929 2.53,-2.64 2.53,-4.449 -0.04,-1.851 -0.99,-3.519 -2.56,-4.449 l -86.43,-49.883 234.32,-135.277 h 0.04 l 19.55,-11.313 c 2.43,-1.429 3.28,-4.539 1.88,-7.007" style="fill:#1f51fe;fill-opacity:1;fill-rule:nonzero;stroke:none" id="path378"/>
      <path d="m 3756.13,770.68 c -0.96,-1.649 -2.67,-2.571 -4.45,-2.571 l -2.56,0.692 -30.19,17.429 -425.29,245.57 c -1.61,0.92 -2.57,2.6 -2.57,4.44 0,1.82 0.96,3.52 2.57,4.44 l 156.17,90.15 -161.94,93.54 -17.07,9.85 10.19,5.91 17.06,-9.84 164.58,-95.01 c 1.57,-0.92 2.56,-2.6 2.56,-4.45 0,-1.84 -0.99,-3.52 -2.56,-4.44 l -156.17,-90.15 424.33,-245.021 23.45,-13.539 c 2.47,-1.399 3.29,-4.539 1.89,-7" style="fill:#1f51fe;fill-opacity:1;fill-rule:nonzero;stroke:none" id="path380"/>
      <path d="m 3299.76,642.441 c -0.92,-1.64 -2.67,-2.562 -4.44,-2.562 l -2.57,0.68 -25.95,14.972 -301.02,173.809 -166.08,-95.899 c -1.57,-0.921 -3.55,-0.921 -5.12,0 l -176.31,101.821 -17.03,9.84 10.19,5.918 17.03,-9.848 168.68,-97.371 166.08,95.898 c 1.61,0.922 3.55,0.922 5.13,0 l 308.74,-178.25 20.79,-12 c 2.46,-1.437 3.32,-4.551 1.88,-7.008" style="fill:#1f51fe;fill-opacity:1;fill-rule:nonzero;stroke:none" id="path382"/>
      <path d="m 3751.51,1050.57 c -0.96,-1.65 -2.67,-2.57 -4.44,-2.57 l -2.57,0.69 -29.27,16.89 -351.44,202.9 -17.06,9.87 10.22,5.92 17.06,-9.85 352.23,-203.34 23.39,-13.5 c 2.46,-1.4 3.32,-4.55 1.88,-7.01" style="fill:#1f51fe;fill-opacity:1;fill-rule:nonzero;stroke:none" id="path384"/>
      <path d="m 4023.09,1209.67 c -0.95,-1.64 -2.66,-2.56 -4.44,-2.56 l -2.56,0.69 -32.21,18.59 -347.38,200.58 -17.09,9.85 10.22,5.94 17.1,-9.84 346.99,-200.38 27.5,-15.85 c 2.45,-1.41 3.28,-4.55 1.87,-7.02" style="fill:#1f51fe;fill-opacity:1;fill-rule:nonzero;stroke:none" id="path386"/>
      <path d="m 3435.82,870.941 c -0.95,-1.632 -2.7,-2.562 -4.44,-2.562 l -2.56,0.691 -31.76,18.321 -269.29,155.479 -10.26,5.92 -66.09,38.19 -17.06,9.84 10.23,5.92 17.05,-9.85 66.13,-38.15 10.25,-5.95 268.34,-154.899 27.58,-15.93 c 2.43,-1.441 3.29,-4.551 1.88,-7.02" style="fill:#1f51fe;fill-opacity:1;fill-rule:nonzero;stroke:none" id="path388"/>
      <path d="m 2926.09,573.789 c -0.92,-1.641 -2.67,-2.559 -4.44,-2.559 l -2.57,0.68 -29.5,17.02 h -0.04 l -348.67,201.332 -17.03,9.847 10.23,5.95 17.02,-9.84 349.46,-201.75 23.66,-13.668 c 2.46,-1.442 3.32,-4.582 1.88,-7.012" style="fill:#1f51fe;fill-opacity:1;fill-rule:nonzero;stroke:none" id="path390"/>
      <path d="m 3302.15,1143.56 -164.13,-94.77 -10.25,-5.92 -45.13,-26.05 -10.22,-5.91 -205.78,-118.801 -30.73,-17.738 -5.13,8.891 27.38,15.789 204.1,117.839 10.22,5.91 45.03,25.99 10.26,5.95 153.87,88.82 -66.63,38.46 -17.06,9.87 10.22,5.92 17.06,-9.84 76.92,-44.41" style="fill:#1f51fe;fill-opacity:1;fill-rule:nonzero;stroke:none" id="path392"/>
      <path d="m 2827.85,443.18 c 15.27,-8.821 15.27,-23.11 0,-31.918 -15.27,-8.813 -40.02,-8.813 -55.29,0 -15.26,8.808 -15.26,23.097 0,31.918 15.27,8.808 40.02,8.808 55.29,0" style="fill:#1f51fe;fill-opacity:1;fill-rule:nonzero;stroke:none" id="path394"/>
      <path d="m 2947.91,590.949 c 15.27,-8.82 15.27,-23.097 0,-31.929 -15.27,-8.809 -40.02,-8.809 -55.28,0 -15.27,8.832 -15.27,23.109 0,31.929 15.26,8.813 40.01,8.813 55.28,0" style="fill:#1f51fe;fill-opacity:1;fill-rule:nonzero;stroke:none" id="path396"/>
      <path d="m 2858.63,898.801 c 15.27,-8.813 15.27,-23.11 0,-31.922 -15.26,-8.809 -40.01,-8.809 -55.28,0 -15.27,8.812 -15.27,23.109 0,31.922 15.27,8.82 40.02,8.82 55.28,0" style="fill:#1f51fe;fill-opacity:1;fill-rule:nonzero;stroke:none" id="path398"/>
      <path d="m 3326.57,658.672 c 15.27,-8.813 15.27,-23.102 0,-31.922 -15.26,-8.809 -40.02,-8.809 -55.28,0 -15.27,8.82 -15.27,23.109 0,31.922 15.26,8.816 40.02,8.816 55.28,0" style="fill:#1f51fe;fill-opacity:1;fill-rule:nonzero;stroke:none" id="path400"/>
      <path d="m 3348.12,769.5 c 15.27,-8.809 15.27,-23.102 0,-31.91 -15.26,-8.82 -40.01,-8.82 -55.29,0 -15.26,8.808 -15.26,23.101 0,31.91 15.28,8.82 40.03,8.82 55.29,0" style="fill:#1f51fe;fill-opacity:1;fill-rule:nonzero;stroke:none" id="path402"/>
      <path d="m 3459.01,892.531 c 15.28,-8.82 15.28,-23.109 0,-31.922 -15.26,-8.82 -40.01,-8.82 -55.28,0 -15.26,8.813 -15.26,23.102 0,31.922 15.27,8.809 40.02,8.809 55.28,0" style="fill:#1f51fe;fill-opacity:1;fill-rule:nonzero;stroke:none" id="path404"/>
      <path d="m 3775.24,786.832 c 15.27,-8.812 15.27,-23.102 0,-31.922 -15.27,-8.82 -40.02,-8.82 -55.29,0 -15.26,8.82 -15.26,23.11 0,31.922 15.27,8.816 40.02,8.816 55.29,0" style="fill:#1f51fe;fill-opacity:1;fill-rule:nonzero;stroke:none" id="path406"/>
      <path d="m 3773.51,1067.53 c 15.27,-8.81 15.27,-23.1 0,-31.92 -15.27,-8.81 -40.02,-8.81 -55.29,0 -15.26,8.82 -15.26,23.11 0,31.92 15.27,8.82 40.02,8.82 55.29,0" style="fill:#1f51fe;fill-opacity:1;fill-rule:nonzero;stroke:none" id="path408"/>
      <path d="m 3889.6,1058.87 c 15.27,-8.81 15.27,-23.11 0,-31.92 -15.27,-8.82 -40.02,-8.82 -55.28,0 -15.27,8.81 -15.27,23.11 0,31.92 15.26,8.81 40.01,8.81 55.28,0" style="fill:#1f51fe;fill-opacity:1;fill-rule:nonzero;stroke:none" id="path410"/>
      <path d="m 4044.68,1230.41 c 15.27,-8.81 15.27,-23.11 0,-31.92 -15.26,-8.82 -40.02,-8.82 -55.29,0 -15.26,8.81 -15.26,23.11 0,31.92 15.27,8.81 40.03,8.81 55.29,0" style="fill:#1f51fe;fill-opacity:1;fill-rule:nonzero;stroke:none" id="path412"/>
      <path d="m 1957.09,2463.19 c 0,-1.82 -0.93,-3.5 -2.5,-4.45 l -81.19,-48.65 -10.09,-6.05 -101.91,-61.06 -10.05,-6.01 -95.55,-57.27 268.5,-155.04 17.06,-9.84 -10.22,-5.95 -17.09,9.84 -270.94,156.45 c -1.57,0.92 -2.52,2.59 -2.56,4.4 0,1.82 0.92,3.53 2.49,4.45 l 98.12,58.8 10.09,6.05 101.91,61.06 10.05,6.05 78.63,47.11 -150.66,86.97 -25.5,14.74 c -2.43,1.4 -3.29,4.55 -1.89,6.97 1.44,2.47 4.55,3.32 7.01,1.89 l 30.19,-17.44 153.54,-88.62 c 1.57,-0.92 2.53,-2.6 2.56,-4.4" style="fill:#1f51fe;fill-opacity:1;fill-rule:nonzero;stroke:none" id="path414"/>
      <path d="m 1039.13,1600.37 -263.692,152.23 114.089,65.88 c 1.571,0.92 2.559,2.6 2.559,4.44 0,1.82 -0.988,3.52 -2.559,4.45 l -154.937,89.43 -28.789,16.62 c -2.461,1.43 -5.571,0.58 -7.004,-1.89 -1.406,-2.42 -0.586,-5.56 1.875,-7 l 21.949,-12.69 154.082,-88.92 -114.086,-65.88 c -1.601,-0.92 -2.562,-2.59 -2.562,-4.44 0,-1.85 0.961,-3.52 2.562,-4.44 l 266.293,-153.74 10.22,5.95" style="fill:#1f51fe;fill-opacity:1;fill-rule:nonzero;stroke:none" id="path416"/>
      <path d="m 1575.67,1902.27 -10.2,-5.91 -17.09,9.85 -183.41,105.91 c -1.58,0.89 -2.57,2.59 -2.57,4.41 0,1.84 0.99,3.55 2.57,4.44 l 86.49,49.95 -211.65,124.54 -20.07,11.83 c -2.46,1.44 -3.28,4.58 -1.85,7.01 1.44,2.43 4.58,3.25 7.05,1.81 l 25.57,-15.07 213.74,-125.75 c 1.57,-0.92 2.56,-2.59 2.53,-4.44 0,-1.81 -0.96,-3.49 -2.57,-4.41 l -86.43,-49.91 180.82,-104.37 17.07,-9.89" style="fill:#1f51fe;fill-opacity:1;fill-rule:nonzero;stroke:none" id="path418"/>
      <path d="m 1804.85,2035.47 -10.22,-5.92 -17.06,9.85 -285.29,164.71 c -1.57,0.93 -2.57,2.6 -2.57,4.45 0,1.84 1,3.52 2.57,4.44 l 125.94,72.72 -160.03,92.4 -33.84,19.56 c -2.46,1.4 -3.32,4.55 -1.88,6.98 1.4,2.45 4.54,3.31 7.01,1.87 l 38.63,-22.29 162.93,-94.08 c 1.61,-0.92 2.57,-2.6 2.57,-4.44 0,-1.85 -0.96,-3.52 -2.57,-4.45 l -125.94,-72.71 282.69,-163.21 17.06,-9.88" style="fill:#1f51fe;fill-opacity:1;fill-rule:nonzero;stroke:none" id="path420"/>
      <path d="m 1446.54,1827.27 -10.23,-5.95 -17.05,9.84 -186.26,107.52 -133.19,-76.88 c -1.57,-0.93 -3.52,-0.93 -5.13,0 l -180.196,104.03 -22.191,12.82 c -2.457,1.4 -3.281,4.55 -1.879,7.01 1.434,2.46 4.547,3.28 7.008,1.88 l 26.531,-15.32 173.287,-100.06 133.2,76.88 c 1.61,0.93 3.56,0.93 5.13,0 l 193.91,-111.93 17.06,-9.84" style="fill:#1f51fe;fill-opacity:1;fill-rule:nonzero;stroke:none" id="path422"/>
      <path d="m 2048.64,2177.14 -10.22,-5.95 -17.1,9.88 -269.97,155.9 -10.19,5.84 -83.62,48.34 h -0.03 l -21.71,12.51 c -2.46,1.44 -3.32,4.55 -1.88,7.01 1.4,2.46 4.55,3.29 7,1.88 l 28.01,-16.17 82.32,-47.52 10.15,-5.88 270.18,-155.96 17.06,-9.88" style="fill:#1f51fe;fill-opacity:1;fill-rule:nonzero;stroke:none" id="path424"/>
      <path d="m 2162.52,2243.32 -10.22,-5.95 -17.09,9.85 -271.9,156.82 -10.15,5.88 -314.49,181.4 -16.31,9.4 c -2.45,1.4 -3.28,4.55 -1.87,6.98 1.4,2.45 4.54,3.31 7,1.91 l 23.9,-13.78 311.82,-179.86 10.19,-5.88 272.03,-156.92 17.09,-9.85" style="fill:#1f51fe;fill-opacity:1;fill-rule:nonzero;stroke:none" id="path426"/>
      <path d="m 1749.4,2003.26 -10.22,-5.95 -17.06,9.85 -360.4,208.06 h -0.04 l -24.1,13.95 c -2.46,1.44 -3.32,4.59 -1.88,7.01 1.4,2.46 4.55,3.31 7.01,1.88 l 30.22,-17.44 359.41,-207.51 17.06,-9.85" style="fill:#1f51fe;fill-opacity:1;fill-rule:nonzero;stroke:none" id="path428"/>
      <path d="m 1242.85,1708.88 -10.22,-5.95 -17.06,9.84 -160.92,92.92 -38.56,22.26 c -2.43,1.4 -3.29,4.55 -1.85,7.01 1.4,2.43 4.54,3.28 6.97,1.88 l 44.21,-25.5 160.37,-92.62 17.06,-9.84" style="fill:#1f51fe;fill-opacity:1;fill-rule:nonzero;stroke:none" id="path430"/>
      <path d="m 733.875,1948.26 c 15.266,-8.81 15.266,-23.1 0,-31.91 -15.27,-8.82 -40.02,-8.82 -55.285,0 -15.27,8.81 -15.27,23.1 0,31.91 15.265,8.82 40.015,8.82 55.285,0" style="fill:#1f51fe;fill-opacity:1;fill-rule:nonzero;stroke:none" id="path432"/>
      <path d="m 1061.79,1840.84 c 15.27,-8.81 15.27,-23.1 0,-31.92 -15.26,-8.81 -40.02,-8.81 -55.28,0 -15.268,8.82 -15.268,23.11 0,31.92 15.26,8.82 40.02,8.82 55.28,0" style="fill:#1f51fe;fill-opacity:1;fill-rule:nonzero;stroke:none" id="path434"/>
      <path d="m 917.613,1999.35 c 15.27,-8.81 15.27,-23.11 0,-31.92 -15.265,-8.82 -40.019,-8.82 -55.285,0 -15.269,8.81 -15.269,23.11 0,31.92 15.266,8.81 40.02,8.81 55.285,0" style="fill:#1f51fe;fill-opacity:1;fill-rule:nonzero;stroke:none" id="path436"/>
      <path d="m 1247.01,2230.64 c 15.26,-8.81 15.26,-23.1 0,-31.91 -15.27,-8.82 -40.02,-8.82 -55.29,0 -15.27,8.81 -15.27,23.1 0,31.91 15.27,8.82 40.02,8.82 55.29,0" style="fill:#1f51fe;fill-opacity:1;fill-rule:nonzero;stroke:none" id="path438"/>
      <path d="m 978.195,2075.18 c 15.262,-8.81 15.262,-23.11 0,-31.92 -15.265,-8.81 -40.023,-8.81 -55.285,0 -15.273,8.81 -15.273,23.11 0,31.92 15.262,8.81 40.02,8.81 55.285,0" style="fill:#1f51fe;fill-opacity:1;fill-rule:nonzero;stroke:none" id="path440"/>
      <path d="m 1514.03,1866.48 -10.23,-5.95 -17.06,9.85 -426.69,246.35 -77.366,-44.65 -29.161,-16.82 c -2.429,-1.44 -5.574,-0.58 -7.007,1.88 -1.407,2.43 -0.547,5.57 1.875,7.01 l 23.968,13.85 85.131,49.12 c 1.57,0.89 3.52,0.89 5.12,0 l 434.35,-250.79 17.07,-9.85" style="fill:#1f51fe;fill-opacity:1;fill-rule:nonzero;stroke:none" id="path442"/>
      <path d="m 2227.03,2280.83 -10.22,-5.95 -17.1,9.85 -185.43,107.07 c -1.6,0.92 -2.56,2.6 -2.56,4.45 0,1.84 0.96,3.52 2.56,4.44 l 86.5,49.95 -211.65,124.54 -20.11,11.8 c -2.42,1.43 -3.25,4.58 -1.81,7 1.44,2.47 4.58,3.29 7.01,1.85 l 25.6,-15.04 213.74,-125.78 c 1.58,-0.92 2.53,-2.63 2.53,-4.44 -0.03,-1.85 -0.99,-3.52 -2.56,-4.45 l -86.42,-49.87 182.86,-105.57 17.06,-9.85" style="fill:#1f51fe;fill-opacity:1;fill-rule:nonzero;stroke:none" id="path444"/>
      <path d="m 1896.3,2610.34 c 15.27,-8.81 15.27,-23.1 0,-31.92 -15.27,-8.81 -40.02,-8.81 -55.29,0 -15.26,8.82 -15.26,23.11 0,31.92 15.27,8.82 40.02,8.82 55.29,0" style="fill:#1f51fe;fill-opacity:1;fill-rule:nonzero;stroke:none" id="path446"/>
      <path d="m 1370.42,2250.92 c 15.27,-8.81 15.27,-23.1 0,-31.92 -15.26,-8.81 -40.01,-8.81 -55.28,0 -15.27,8.82 -15.27,23.11 0,31.92 15.27,8.82 40.02,8.82 55.28,0" style="fill:#1f51fe;fill-opacity:1;fill-rule:nonzero;stroke:none" id="path448"/>
      <path d="m 1462.72,2412.25 c 15.26,-8.81 15.26,-23.1 0,-31.92 -15.27,-8.81 -40.02,-8.81 -55.29,0 -15.27,8.82 -15.27,23.11 0,31.92 15.27,8.81 40.02,8.81 55.29,0" style="fill:#1f51fe;fill-opacity:1;fill-rule:nonzero;stroke:none" id="path450"/>
      <path d="m 1552.64,2628.4 c 15.27,-8.82 15.27,-23.11 0,-31.92 -15.26,-8.82 -40.02,-8.82 -55.28,0 -15.27,8.81 -15.27,23.1 0,31.92 15.26,8.81 40.02,8.81 55.28,0" style="fill:#1f51fe;fill-opacity:1;fill-rule:nonzero;stroke:none" id="path452"/>
      <path d="m 1795.41,2584.06 c 15.27,-8.81 15.27,-23.1 0,-31.91 -15.27,-8.82 -40.02,-8.82 -55.29,0 -15.26,8.81 -15.26,23.1 0,31.91 15.27,8.82 40.02,8.82 55.29,0" style="fill:#1f51fe;fill-opacity:1;fill-rule:nonzero;stroke:none" id="path454"/>
      <path d="m 1667,2427.1 c 15.27,-8.82 15.27,-23.11 0,-31.92 -15.26,-8.81 -40.02,-8.81 -55.28,0 -15.27,8.81 -15.27,23.1 0,31.92 15.26,8.81 40.02,8.81 55.28,0" style="fill:#1f51fe;fill-opacity:1;fill-rule:nonzero;stroke:none" id="path456"/>
      <path d="m 3683.34,1875.17 c -0.03,-1.82 -0.99,-3.5 -2.56,-4.42 l -254.8,-147.11 -17.06,-9.84 -10.26,5.91 17.06,9.88 252.37,145.71 -231.62,138.76 -10.05,6.06 -57.12,34.22 c -1.58,0.92 -2.53,2.63 -2.5,4.44 0,1.81 0.99,3.49 2.57,4.41 l 153.49,88.62 30.23,17.43 c 2.42,1.44 5.57,0.58 6.97,-1.88 1.44,-2.46 0.58,-5.57 -1.84,-7.01 l -25.47,-14.7 -150.7,-87 54.52,-32.69 10.09,-6.01 234.18,-140.34 c 1.54,-0.96 2.5,-2.63 2.5,-4.44" style="fill:#1f51fe;fill-opacity:1;fill-rule:nonzero;stroke:none" id="path458"/>
      <path d="m 3439.21,2198.37 -20.07,-11.8 -211.65,-124.54 86.49,-49.95 c 1.58,-0.92 2.57,-2.6 2.57,-4.44 0,-1.85 -0.99,-3.52 -2.57,-4.45 l -176.1,-101.67 -17.06,-9.84 -10.25,5.91 17.06,9.85 173.53,100.2 -86.42,49.88 c -1.57,0.92 -2.57,2.6 -2.57,4.44 0,1.81 0.96,3.52 2.53,4.45 l 213.74,125.77 25.57,15.04 c 2.46,1.44 5.61,0.62 7.05,-1.84 1.43,-2.43 0.61,-5.58 -1.85,-7.01" style="fill:#1f51fe;fill-opacity:1;fill-rule:nonzero;stroke:none" id="path460"/>
      <path d="m 3220.55,2420.59 -32.89,-19.01 -165.23,-95.38 128.75,-74.33 c 1.61,-0.92 2.57,-2.63 2.57,-4.44 0,-1.85 -0.96,-3.52 -2.57,-4.45 l -295.04,-170.32 -17.05,-9.88 -10.26,5.92 17.06,9.84 292.47,168.89 -128.75,74.32 c -1.57,0.93 -2.56,2.6 -2.56,4.45 0,1.84 0.99,3.52 2.56,4.44 l 169.06,97.61 36.75,21.22 c 2.46,1.41 5.61,0.59 7.01,-1.88 1.43,-2.46 0.58,-5.57 -1.88,-7" style="fill:#1f51fe;fill-opacity:1;fill-rule:nonzero;stroke:none" id="path462"/>
      <path d="m 3958.79,1773.9 -21.99,-12.68 -148.71,-85.85 c -1.57,-0.92 -3.52,-0.92 -5.13,0 l -111.89,64.62 -136.68,-78.91 -17.1,-9.88 -10.25,5.95 17.09,9.85 144.38,83.35 c 1.57,0.92 3.55,0.92 5.12,0 l 111.89,-64.62 140.03,80.82 28.11,16.24 c 2.46,1.4 5.57,0.58 7.01,-1.88 1.4,-2.46 0.58,-5.57 -1.88,-7.01" style="fill:#1f51fe;fill-opacity:1;fill-rule:nonzero;stroke:none" id="path464"/>
      <path d="m 3012.79,2393.03 -21.71,-12.51 h -0.03 l -351.34,-202.9 -17.1,-9.85 -10.25,5.92 17.05,9.84 350.26,202.22 28,16.17 c 2.46,1.43 5.6,0.58 7,-1.88 1.44,-2.46 0.58,-5.57 -1.88,-7.01" style="fill:#1f51fe;fill-opacity:1;fill-rule:nonzero;stroke:none" id="path466"/>
      <path d="m 3136.59,2591.8 -16.28,-9.41 -591.16,-340.94 -17.1,-9.85 -10.26,5.92 17.07,9.84 588.7,339.54 23.9,13.78 c 2.45,1.41 5.6,0.58 7,-1.87 1.44,-2.47 0.58,-5.61 -1.87,-7.01" style="fill:#1f51fe;fill-opacity:1;fill-rule:nonzero;stroke:none" id="path468"/>
      <path d="m 3321.37,2220.28 -24.18,-13.94 -353.59,-204.17 -17.1,-9.85 -10.25,5.92 17.05,9.84 352.68,203.62 30.26,17.47 c 2.46,1.41 5.61,0.58 7.01,-1.88 1.43,-2.46 0.58,-5.6 -1.88,-7.01" style="fill:#1f51fe;fill-opacity:1;fill-rule:nonzero;stroke:none" id="path470"/>
      <path d="m 2938.19,2224.9 -38.56,-22.25 -151.66,-87.56 -17.05,-9.85 -10.26,5.92 17.06,9.84 151.21,87.28 44.13,25.51 c 2.47,1.4 5.61,0.58 7.02,-1.88 1.4,-2.46 0.58,-5.58 -1.89,-7.01" style="fill:#1f51fe;fill-opacity:1;fill-rule:nonzero;stroke:none" id="path472"/>
      <path d="m 2892.5,2237.8 c -15.26,-8.81 -15.26,-23.1 0,-31.92 15.27,-8.81 40.02,-8.81 55.29,0 15.27,8.82 15.27,23.11 0,31.92 -15.27,8.82 -40.02,8.82 -55.29,0" style="fill:#1f51fe;fill-opacity:1;fill-rule:nonzero;stroke:none" id="path474"/>
      <path d="m 3927.87,1797.01 c -15.27,-8.82 -15.27,-23.11 0,-31.92 15.26,-8.82 40.01,-8.82 55.28,0 15.26,8.81 15.26,23.1 0,31.92 -15.27,8.81 -40.02,8.81 -55.28,0" style="fill:#1f51fe;fill-opacity:1;fill-rule:nonzero;stroke:none" id="path476"/>
      <path d="m 3411.95,2221.74 c -15.27,-8.82 -15.27,-23.11 0,-31.92 15.27,-8.82 40.02,-8.82 55.29,0 15.26,8.81 15.26,23.1 0,31.92 -15.27,8.82 -40.02,8.82 -55.29,0" style="fill:#1f51fe;fill-opacity:1;fill-rule:nonzero;stroke:none" id="path478"/>
      <path d="m 3680.76,2066.27 c -15.27,-8.81 -15.27,-23.1 0,-31.92 15.27,-8.81 40.02,-8.81 55.29,0 15.26,8.82 15.26,23.11 0,31.92 -15.27,8.82 -40.02,8.82 -55.29,0" style="fill:#1f51fe;fill-opacity:1;fill-rule:nonzero;stroke:none" id="path480"/>
      <path d="m 3712.44,2048.22 c -1.44,-2.46 -4.55,-3.28 -7.01,-1.88 l -29.13,16.82 -77.4,44.68 -152.24,-87.89 -10.19,-5.89 -256.74,-148.23 -17.09,-9.85 -10.23,5.92 17.06,9.84 256.95,148.38 10.15,5.84 159.76,92.24 c 1.61,0.92 3.56,0.92 5.13,0 l 85.13,-49.16 23.96,-13.82 c 2.43,-1.4 3.28,-4.54 1.89,-7" style="fill:#1f51fe;fill-opacity:1;fill-rule:nonzero;stroke:none" id="path482"/>
      <path d="m 2789.92,2578.05 -20.03,-11.79 -211.72,-124.54 86.49,-49.95 c 1.61,-0.93 2.57,-2.6 2.57,-4.45 0,-1.81 -0.96,-3.52 -2.57,-4.44 l -180.27,-104.07 -17.06,-9.84 -64.27,-37.1 -2.53,-0.71 c -1.78,0 -3.52,0.92 -4.44,2.56 -1.44,2.46 -0.58,5.61 1.84,7.01 l 59.15,34.15 17.09,9.85 177.67,102.59 -86.42,49.91 c -1.58,0.93 -2.53,2.6 -2.57,4.42 0,1.84 0.96,3.52 2.53,4.44 l 213.74,125.78 25.61,15.03 c 2.42,1.44 5.57,0.62 7.01,-1.81 1.43,-2.46 0.65,-5.6 -1.82,-7.04" style="fill:#1f51fe;fill-opacity:1;fill-rule:nonzero;stroke:none" id="path484"/>
      <path d="m 2762.66,2601.44 c -15.28,-8.82 -15.28,-23.1 0,-31.92 15.26,-8.82 40.01,-8.82 55.28,0 15.26,8.82 15.26,23.1 0,31.92 -15.27,8.81 -40.02,8.81 -55.28,0" style="fill:#1f51fe;fill-opacity:1;fill-rule:nonzero;stroke:none" id="path486"/>
      <path d="m 3288.53,2242.02 c -15.27,-8.82 -15.27,-23.11 0,-31.92 15.27,-8.82 40.02,-8.82 55.29,0 15.26,8.81 15.26,23.1 0,31.92 -15.27,8.81 -40.02,8.81 -55.29,0" style="fill:#1f51fe;fill-opacity:1;fill-rule:nonzero;stroke:none" id="path488"/>
      <path d="m 3185.88,2434.43 c -15.27,-8.82 -15.27,-23.1 0,-31.92 15.26,-8.81 40.01,-8.81 55.28,0 15.26,8.82 15.26,23.1 0,31.92 -15.27,8.82 -40.02,8.82 -55.28,0" style="fill:#1f51fe;fill-opacity:1;fill-rule:nonzero;stroke:none" id="path490"/>
      <path d="m 3106.31,2619.49 c -15.27,-8.81 -15.27,-23.1 0,-31.92 15.27,-8.81 40.02,-8.81 55.29,0 15.26,8.82 15.26,23.11 0,31.92 -15.27,8.81 -40.02,8.81 -55.29,0" style="fill:#1f51fe;fill-opacity:1;fill-rule:nonzero;stroke:none" id="path492"/>
      <path d="m 3528.47,2179.65 c -15.27,-8.81 -15.27,-23.1 0,-31.92 15.27,-8.81 40.02,-8.81 55.29,0 15.26,8.82 15.26,23.11 0,31.92 -15.27,8.82 -40.02,8.82 -55.29,0" style="fill:#1f51fe;fill-opacity:1;fill-rule:nonzero;stroke:none" id="path494"/>
      <path d="m 2981.59,2416.47 c -15.27,-8.82 -15.27,-23.11 0,-31.92 15.26,-8.82 40.02,-8.82 55.28,0 15.27,8.81 15.27,23.1 0,31.92 -15.26,8.81 -40.02,8.81 -55.28,0" style="fill:#1f51fe;fill-opacity:1;fill-rule:nonzero;stroke:none" id="path496"/>
      <path d="m 1806.62,2242.99 -84.91,49.34 c -9.34,5.43 -16.22,16.1 -18.88,33 l 84.91,-49.34 c 2.66,-16.91 9.53,-27.57 18.88,-33" style="fill:#dad9e8;fill-opacity:1;fill-rule:nonzero;stroke:none" id="path498"/>
      <g id="g500">
        <g id="g502" clip-path="url(#clipPath506)">
          <path d="m 1806.62,2242.99 -84.91,49.34 c -9.28,5.4 -16.13,15.96 -18.83,32.69 l 84.9,-49.34 c 2.7,-16.72 9.55,-27.29 18.84,-32.69" style="fill:#dad9e8;fill-opacity:1;fill-rule:nonzero;stroke:none" id="path508"/>
          <path d="m 1787.78,2275.68 -84.9,49.34 -0.05,0.31 84.91,-49.34 0.04,-0.31" style="fill:#dad9e8;fill-opacity:1;fill-rule:nonzero;stroke:none" id="path510"/>
        </g>
      </g>
      <path d="m 1879.66,3128.77 84.91,-49.35 c -24.78,14.4 -59.12,12.6 -97.58,-9.6 l -84.9,49.34 c 38.45,22.21 72.8,24 97.57,9.61" style="fill:#dad9e8;fill-opacity:1;fill-rule:nonzero;stroke:none" id="path512"/>
      <g id="g514">
        <g id="g516" clip-path="url(#clipPath520)">
          <path d="m 1866.99,3069.82 -84.9,49.34 c 38.45,22.21 72.8,24 97.57,9.61 l 84.91,-49.35 c -24.78,14.4 -59.12,12.6 -97.58,-9.6" style="fill:#dad9e8;fill-opacity:1;fill-rule:nonzero;stroke:none" id="path522"/>
        </g>
      </g>
      <path d="m 1787.74,2275.99 -84.91,49.34 -81.59,517.59 84.91,-49.34 81.59,-517.59" style="fill:#dad9e8;fill-opacity:1;fill-rule:nonzero;stroke:none" id="path524"/>
      <path d="m 1841.11,3054.88 -84.9,49.34 25.88,14.94 84.9,-49.34 -25.88,-14.94" style="fill:#ebebf1;fill-opacity:1;fill-rule:nonzero;stroke:none" id="path526"/>
      <path d="m 1706.15,2793.58 -84.91,49.34 c -13.88,88.08 50.36,212.45 134.97,261.3 l 84.9,-49.34 c -84.61,-48.85 -148.85,-173.23 -134.96,-261.3" style="fill:#ebebf1;fill-opacity:1;fill-rule:nonzero;stroke:none" id="path528"/>
      <g id="g530">
        <g id="g532" clip-path="url(#clipPath536)">
          <path d="m 1706.15,2793.58 -84.91,49.34 c -4.22,26.78 -1.22,56.91 7.38,87.26 l 84.9,-49.34 c -8.6,-30.34 -11.6,-60.48 -7.37,-87.26" style="fill:#ebebf1;fill-opacity:1;fill-rule:nonzero;stroke:none" id="path538"/>
          <path d="m 1713.52,2880.84 -84.9,49.34 c 9.68,34.16 26.44,68.57 47.99,98.78 l 84.9,-49.34 c -21.54,-30.21 -38.31,-64.63 -47.99,-98.78" style="fill:#ebebf1;fill-opacity:1;fill-rule:nonzero;stroke:none" id="path540"/>
          <path d="m 1761.51,2979.62 -84.9,49.34 c 16.47,23.09 35.73,43.72 56.74,59.89 l 84.91,-49.33 c -21.02,-16.18 -40.28,-36.81 -56.75,-59.9" style="fill:#ebebf1;fill-opacity:1;fill-rule:nonzero;stroke:none" id="path542"/>
          <path d="m 1818.26,3039.52 -84.91,49.33 c 7.41,5.71 15.05,10.86 22.86,15.37 l 84.9,-49.34 c -7.81,-4.51 -15.44,-9.66 -22.85,-15.36" style="fill:#ebebf1;fill-opacity:1;fill-rule:nonzero;stroke:none" id="path544"/>
        </g>
      </g>
      <path d="m 1866.99,3069.82 c 84.61,48.85 149.31,-1.08 135.97,-104.88 l -78.36,-609.93 c -6.2,-48.22 -37.19,-88.43 -68.24,-106.36 -31.06,-17.93 -62.17,-13.58 -68.62,27.34 l -81.59,517.59 c -13.89,88.07 50.35,212.45 134.96,261.3 l 25.88,14.94" style="fill:#d8e0ff;fill-opacity:1;fill-rule:nonzero;stroke:none" id="path546"/>
      <path d="m 1960.92,3065.43 59.13,-34.37 c -25.1,14.59 -59.86,12.54 -98.23,-9.61 l -59.14,34.36 c 38.37,22.16 73.13,24.2 98.24,9.62" style="fill:#1f51fe;fill-opacity:1;fill-rule:nonzero;stroke:none" id="path548"/>
      <g id="g550">
        <g id="g552" clip-path="url(#clipPath556)">
          <path d="m 1921.82,3021.45 -59.14,34.36 c 38.37,22.16 73.13,24.2 98.24,9.62 l 59.13,-34.37 c -25.1,14.59 -59.86,12.54 -98.23,-9.61" style="fill:#1f51fe;fill-opacity:1;fill-rule:nonzero;stroke:none" id="path558"/>
        </g>
      </g>
      <path d="m 1935.52,2963.68 c 52.24,30.19 94.84,5.89 94.98,-54.17 0.2,-60.02 -42.11,-133.3 -94.36,-163.44 -52.25,-30.2 -94.87,-5.94 -95.02,54.1 -0.2,60.01 42.16,133.38 94.4,163.51" style="fill:#1f51fe;fill-opacity:1;fill-rule:nonzero;stroke:none" id="path560"/>
      <path d="m 1824.42,2694.44 -59.13,34.37 c -24.79,14.4 -40.15,45.02 -40.28,88.55 -0.25,87.64 61.4,194.42 137.67,238.45 l 59.14,-34.36 c -76.27,-44.04 -137.92,-150.82 -137.67,-238.46 0.12,-43.52 15.49,-74.15 40.27,-88.55" style="fill:#1f51fe;fill-opacity:1;fill-rule:nonzero;stroke:none" id="path562"/>
      <g id="g564">
        <g id="g566" clip-path="url(#clipPath570)">
          <path d="m 1824.42,2694.44 -59.13,34.37 c -22.01,12.79 -36.6,38.37 -39.67,74.42 l 59.14,-34.37 c 3.07,-36.05 17.65,-61.63 39.66,-74.42" style="fill:#1f51fe;fill-opacity:1;fill-rule:nonzero;stroke:none" id="path572"/>
          <path d="m 1784.76,2768.86 -59.14,34.37 c -0.39,4.55 -0.6,9.26 -0.61,14.13 -0.21,75.56 45.59,165.36 107.1,216.89 l 59.14,-34.37 c -61.52,-51.53 -107.32,-141.32 -107.1,-216.89 0.01,-4.87 0.22,-9.58 0.61,-14.13" style="fill:#1f51fe;fill-opacity:1;fill-rule:nonzero;stroke:none" id="path574"/>
          <path d="m 1891.25,2999.88 -59.14,34.37 c 9.83,8.24 20.06,15.49 30.57,21.56 l 59.14,-34.36 c -10.51,-6.07 -20.74,-13.33 -30.57,-21.57" style="fill:#1f51fe;fill-opacity:1;fill-rule:nonzero;stroke:none" id="path576"/>
        </g>
      </g>
      <path d="m 1935.52,2963.68 -13.7,57.77 c 76.26,44.03 138.28,8.65 138.53,-78.99 0.25,-87.64 -61.36,-194.36 -137.63,-238.39 -76.27,-44.03 -138.32,-8.72 -138.57,78.92 -0.25,87.64 61.4,194.42 137.67,238.46 l 13.7,-57.77 c -52.24,-30.13 -94.6,-103.5 -94.4,-163.51 0.15,-60.04 42.77,-84.3 95.02,-54.1 52.25,30.14 94.56,103.42 94.36,163.44 -0.14,60.06 -42.74,84.36 -94.98,54.17" style="fill:#1f51fe;fill-opacity:1;fill-rule:nonzero;stroke:none" id="path578"/>
      <g id="g580">
        <g id="g582" clip-path="url(#clipPath586)">
          <path d="m 1935.52,2963.68 -13.7,57.77 c 76.26,44.03 138.28,8.65 138.53,-78.99 0.25,-87.64 -61.36,-194.36 -137.63,-238.39 -76.27,-44.03 -138.32,-8.72 -138.57,78.92 -0.25,87.64 61.4,194.42 137.67,238.46 l 13.7,-57.77 c -52.24,-30.13 -94.6,-103.5 -94.4,-163.51 0.15,-60.04 42.77,-84.3 95.02,-54.1 52.25,30.14 94.56,103.42 94.36,163.44 -0.14,60.06 -42.74,84.36 -94.98,54.17" style="fill:#072ba4;fill-opacity:1;fill-rule:nonzero;stroke:none" id="path588"/>
        </g>
      </g>
      <path d="m 1913.16,3513.73 -153.26,500.41 153.26,-500.41" style="fill:#041f7a;fill-opacity:1;fill-rule:nonzero;stroke:none" id="path590"/>
      <path d="m 1898.76,3509.32 -153.26,500.41 28.8,8.81 153.26,-500.41 -28.8,-8.81" style="fill:#072ba4;fill-opacity:1;fill-rule:nonzero;stroke:none" id="path592"/>
      <path d="m 2095.73,1942.37 c -140.63,86.87 -172.26,203.5 -185.76,253.31 10.93,-47.78 48.32,-95.3 112.12,-133.7 159.4,-95.94 423.31,-98.61 589.45,-5.97 71.35,39.79 113.07,90.68 124.82,143.4 -10.81,-41.33 -27.13,-103.8 -89.44,-175.99 -23.6,-27.34 -75.59,-78.19 -158.7,-111.53 -126.37,-50.71 -280.43,-38.74 -392.49,30.48" style="fill:#c9d4ff;fill-opacity:1;fill-rule:nonzero;stroke:none" id="path594"/>
      <path d="m 2614.23,3081.83 c 155.39,-93.53 150.06,-242.55 -11.9,-332.87 -161.97,-90.31 -419.24,-87.71 -574.63,5.82 -155.39,93.52 -150.06,242.55 11.91,332.86 161.96,90.31 419.23,87.71 574.62,-5.81" style="fill:#d3d9f2;fill-opacity:1;fill-rule:nonzero;stroke:none" id="path596"/>
      <path d="m 1909.65,2197.03 -125.31,547.53 c 14.61,-63.84 63.19,-125.59 146.1,-175.48 207.12,-124.66 550.05,-128.13 765.93,-7.75 92.72,51.7 146.93,117.83 162.2,186.34 l -122.21,-548.25 c -11.75,-52.72 -53.47,-103.62 -124.82,-143.41 -166.14,-92.64 -430.05,-89.97 -589.45,5.97 -63.8,38.4 -101.19,85.92 -112.44,135.05" style="fill:#9bb0ff;fill-opacity:1;fill-rule:nonzero;stroke:none" id="path598"/>
      <path d="m 1972.99,3096.37 c 211.61,114.87 511.23,111.46 712.44,-8.1 -17.95,10.8 -43.04,9.96 -71.2,-5.75 -155.39,93.52 -412.66,96.13 -574.62,5.82 -161.97,-90.32 -167.3,-239.35 -11.91,-332.87 155.39,-93.52 412.66,-96.12 574.63,-5.81 161.96,90.31 167.29,239.34 11.9,332.86 28.16,15.71 53.25,16.55 71.2,5.75 42.13,-27.24 105.81,-68.41 150.1,-155.03 41.33,-80.82 28.77,-153.31 23.41,-184.26 -15.74,-70.31 -69.93,-136.37 -162.57,-188.02 -215.88,-120.38 -558.81,-116.91 -765.93,7.75 -82.82,49.85 -131.4,111.52 -146.06,175.3 -5.18,27.84 -10.07,54.14 -5.11,95.32 6.21,51.65 26.8,90.58 27.67,92.21 15.42,28.8 56.37,105.29 166.05,164.83" style="fill:#dad9e8;fill-opacity:1;fill-rule:nonzero;stroke:none" id="path600"/>
      <path d="m 2546.5,3757.65 c 119.19,-71.74 115.1,-186.05 -9.13,-255.33 -124.24,-69.27 -321.57,-67.27 -440.77,4.46 -119.19,71.74 -115.1,186.05 9.14,255.33 124.23,69.27 321.57,67.27 440.76,-4.46" style="fill:#ebebf1;fill-opacity:1;fill-rule:nonzero;stroke:none" id="path602"/>
      <path d="m 1939.15,2902.31 c -191.85,118.73 -233.97,275.84 -235.52,386.73 0.25,-89.06 57.45,-178.09 172.3,-247.21 236.63,-142.42 628.41,-146.39 875.05,-8.86 126.93,70.79 190.69,165.25 190.42,259.68 -2.14,-57.98 -5.33,-88.05 -28.64,-152.98 -18.28,-50.91 -50.93,-94.22 -68.47,-117.49 -8.19,-10.86 -84.29,-107.83 -231.23,-165.06 -254.77,-99.22 -522.04,-48.8 -673.91,45.19" style="fill:#9bb0ff;fill-opacity:1;fill-rule:nonzero;stroke:none" id="path604"/>
      <path d="m 1956.85,3780 c 112.35,61.17 238.5,91.29 374.95,89.55 140.12,-1.79 265.9,-35.14 373.83,-99.12 -40.41,24.32 -96.81,21.97 -159.13,-12.78 -119.19,71.73 -316.53,73.73 -440.76,4.46 -124.24,-69.28 -128.33,-183.59 -9.14,-255.33 119.2,-71.73 316.53,-73.73 440.77,-4.46 124.23,69.28 128.32,183.59 9.13,255.33 62.32,34.75 118.72,37.1 159.13,12.78 56.88,-36.72 229.99,-148.48 235.51,-386.73 0.27,-94.44 -63.48,-188.9 -190.42,-259.68 -246.64,-137.53 -638.42,-133.56 -875.05,8.85 -114.85,69.13 -172.04,158.16 -172.3,247.22 1.28,34.62 2.73,73.86 17.87,121.82 17.94,56.79 33.39,81.18 58.99,121.56 20.21,31.89 83.14,105.65 176.62,156.53" style="fill:#d3d9f2;fill-opacity:1;fill-rule:nonzero;stroke:none" id="path606"/>
      <path d="m 2444,3030.6 c -200.41,-23.55 -416.36,10.81 -568.33,102.27 -114.2,68.74 -171.4,157.16 -172.29,245.71 -0.16,57.52 23.49,110.62 63.37,153.1 0.8,-79.42 52.1,-158.73 154.52,-220.38 136.31,-82.03 330,-112.85 509.74,-91.73 7.99,-64.97 12.82,-131.45 12.99,-188.97" style="fill:#041f7a;fill-opacity:1;fill-rule:nonzero;stroke:none" id="path608"/>
      <path d="m 1703.63,3289.04 -0.26,91.05 c 0.26,-89.06 57.45,-178.09 172.3,-247.22 236.63,-142.41 628.41,-146.38 875.05,-8.85 126.94,70.78 190.69,165.24 190.42,259.68 l 0.26,-91.05 c 0.27,-94.43 -63.49,-188.89 -190.42,-259.68 -246.64,-137.53 -638.42,-133.56 -875.05,8.86 -114.85,69.12 -172.05,158.15 -172.3,247.21" style="fill:#dad9e8;fill-opacity:1;fill-rule:nonzero;stroke:none" id="path610"/>
      <path d="m 1803.94,3286.4 c -12.17,-34.38 -33.01,-36.68 -47.44,-5.24 -24.1,52.5 0.45,115.93 31.71,106.88 5.69,-1.65 8.67,-4.92 11.84,-8.38 20.04,-28.48 9.25,-78.12 3.89,-93.26" style="fill:#1f51fe;fill-opacity:1;fill-rule:nonzero;stroke:none" id="path612"/>
      <path d="m 2154.74,3130.76 c -9.15,-51.62 -74.01,-60.31 -106.77,-14.3 -34.21,48.04 3.28,103.38 51.16,97.43 1.76,-0.22 4.09,-0.73 5.84,-1.04 42.19,-12.23 54.51,-55.36 49.77,-82.09" style="fill:#1f51fe;fill-opacity:1;fill-rule:nonzero;stroke:none" id="path614"/>
      <path d="m 2732.73,3352.74 c 0,30.56 -21.46,42.95 -47.93,27.67 -26.47,-15.29 -47.92,-52.45 -47.92,-83.01 0,-30.56 21.46,-42.95 47.93,-27.67 26.46,15.28 47.92,52.44 47.92,83.01" style="fill:#041f7a;fill-opacity:1;fill-rule:nonzero;stroke:none" id="path616"/>
      <path d="m 2691.04,3324.4 349.35,262.19 -349.35,-262.19" style="fill:#041f7a;fill-opacity:1;fill-rule:nonzero;stroke:none" id="path618"/>
      <path d="m 2691.05,3309.35 c -4.57,0 -9.09,2.07 -12.05,6.01 -4.99,6.65 -3.65,16.09 3,21.09 l 349.35,262.19 c 6.64,4.99 16.09,3.65 21.08,-3.01 4.99,-6.65 3.65,-16.09 -3.01,-21.08 l -349.34,-262.19 c -2.71,-2.03 -5.88,-3.01 -9.03,-3.01" style="fill:#072ba4;fill-opacity:1;fill-rule:nonzero;stroke:none" id="path620"/>
      <path d="m 3129.07,3605.4 c 0,44.85 -36.36,81.21 -81.22,81.21 -44.85,0 -81.21,-36.36 -81.21,-81.21 0,-44.86 36.36,-81.22 81.21,-81.22 44.86,0 81.22,36.36 81.22,81.22" style="fill:#041f7a;fill-opacity:1;fill-rule:nonzero;stroke:none" id="path622"/>
      <path d="m 1833.73,4014.14 c 0,44.85 -36.36,81.21 -81.22,81.21 -44.85,0 -81.21,-36.36 -81.21,-81.21 0,-44.86 36.36,-81.22 81.21,-81.22 44.86,0 81.22,36.36 81.22,81.22" style="fill:#041f7a;fill-opacity:1;fill-rule:nonzero;stroke:none" id="path624"/>
      <path d="m 2804.6,2773.85 59.13,-34.37 c -25.1,14.59 -59.86,12.54 -98.23,-9.61 l -59.14,34.37 c 38.37,22.15 73.13,24.2 98.24,9.61" style="fill:#1f51fe;fill-opacity:1;fill-rule:nonzero;stroke:none" id="path626"/>
      <g id="g628">
        <g id="g630" clip-path="url(#clipPath634)">
          <path d="m 2765.5,2729.87 -59.14,34.37 c 38.37,22.15 73.13,24.2 98.24,9.61 l 59.13,-34.37 c -25.1,14.59 -59.86,12.54 -98.23,-9.61" style="fill:#1f51fe;fill-opacity:1;fill-rule:nonzero;stroke:none" id="path636"/>
        </g>
      </g>
      <path d="m 2779.2,2672.1 c 52.24,30.19 94.84,5.89 94.98,-54.17 0.19,-60.01 -42.11,-133.3 -94.36,-163.43 -52.25,-30.2 -94.88,-5.94 -95.01,54.1 -0.21,60.01 42.15,133.38 94.39,163.5" style="fill:#1f51fe;fill-opacity:1;fill-rule:nonzero;stroke:none" id="path638"/>
      <path d="m 2668.11,2402.87 -59.14,34.36 c -24.79,14.4 -40.15,45.03 -40.28,88.55 -0.25,87.64 61.4,194.42 137.67,238.46 l 59.14,-34.37 c -76.27,-44.03 -137.92,-150.82 -137.67,-238.46 0.12,-43.52 15.49,-74.14 40.28,-88.54" style="fill:#1f51fe;fill-opacity:1;fill-rule:nonzero;stroke:none" id="path640"/>
      <g id="g642">
        <g id="g644" clip-path="url(#clipPath648)">
          <path d="m 2668.11,2402.87 -59.14,34.36 c -22.01,12.79 -36.6,38.37 -39.67,74.42 l 59.13,-34.36 c 3.08,-36.05 17.67,-61.63 39.68,-74.42" style="fill:#1f51fe;fill-opacity:1;fill-rule:nonzero;stroke:none" id="path650"/>
          <path d="m 2628.43,2477.29 -59.13,34.36 c -0.39,4.55 -0.59,9.26 -0.61,14.13 -0.21,75.57 45.59,165.36 107.11,216.9 l 59.13,-34.37 c -61.51,-51.54 -107.31,-141.33 -107.1,-216.9 0.01,-4.87 0.22,-9.58 0.6,-14.12" style="fill:#1f51fe;fill-opacity:1;fill-rule:nonzero;stroke:none" id="path652"/>
          <path d="m 2734.93,2708.31 -59.13,34.37 c 9.82,8.23 20.05,15.49 30.56,21.56 l 59.14,-34.37 c -10.51,-6.07 -20.74,-13.32 -30.57,-21.56" style="fill:#1f51fe;fill-opacity:1;fill-rule:nonzero;stroke:none" id="path654"/>
        </g>
      </g>
      <path d="m 2779.2,2672.1 -13.7,57.77 c 76.27,44.03 138.28,8.65 138.53,-78.99 0.25,-87.64 -61.37,-194.35 -137.63,-238.39 -76.27,-44.03 -138.32,-8.71 -138.57,78.92 -0.25,87.64 61.4,194.43 137.67,238.46 l 13.7,-57.77 c -52.24,-30.12 -94.6,-103.49 -94.39,-163.5 0.13,-60.04 42.76,-84.3 95.01,-54.1 52.25,30.13 94.55,103.42 94.36,163.43 -0.14,60.06 -42.74,84.36 -94.98,54.17" style="fill:#1f51fe;fill-opacity:1;fill-rule:nonzero;stroke:none" id="path656"/>
      <g id="g658">
        <g id="g660" clip-path="url(#clipPath664)">
          <path d="m 2779.2,2672.1 -13.7,57.77 c 76.27,44.03 138.28,8.65 138.53,-78.99 0.25,-87.64 -61.37,-194.35 -137.63,-238.39 -76.27,-44.03 -138.32,-8.71 -138.57,78.92 -0.25,87.64 61.4,194.43 137.67,238.46 l 13.7,-57.77 c -52.24,-30.12 -94.6,-103.49 -94.39,-163.5 0.13,-60.04 42.76,-84.3 95.01,-54.1 52.25,30.13 94.55,103.42 94.36,163.43 -0.14,60.06 -42.74,84.36 -94.98,54.17" style="fill:#072ba4;fill-opacity:1;fill-rule:nonzero;stroke:none" id="path666"/>
        </g>
      </g>
      <path d="m 2805.28,1861.49 -84.9,49.34 c -9.34,5.43 -16.22,16.09 -18.89,33 l 84.91,-49.35 c 2.67,-16.9 9.54,-27.56 18.88,-32.99" style="fill:#dad9e8;fill-opacity:1;fill-rule:nonzero;stroke:none" id="path668"/>
      <g id="g670">
        <g id="g672" clip-path="url(#clipPath676)">
          <path d="m 2805.28,1861.49 -84.9,49.34 c -9.28,5.4 -16.14,15.96 -18.83,32.69 l 84.9,-49.34 c 2.7,-16.73 9.55,-27.29 18.83,-32.69" style="fill:#dad9e8;fill-opacity:1;fill-rule:nonzero;stroke:none" id="path678"/>
          <path d="m 2786.45,1894.18 -84.9,49.34 -0.06,0.31 84.91,-49.35 0.05,-0.3" style="fill:#dad9e8;fill-opacity:1;fill-rule:nonzero;stroke:none" id="path680"/>
        </g>
      </g>
      <path d="m 2878.32,2747.26 84.91,-49.34 c -24.77,14.39 -59.12,12.6 -97.57,-9.6 l -84.91,49.34 c 38.46,22.2 72.8,24 97.57,9.6" style="fill:#dad9e8;fill-opacity:1;fill-rule:nonzero;stroke:none" id="path682"/>
      <g id="g684">
        <g id="g686" clip-path="url(#clipPath690)">
          <path d="m 2865.66,2688.32 -84.91,49.34 c 38.46,22.2 72.8,24 97.57,9.6 l 84.91,-49.34 c -24.77,14.39 -59.12,12.6 -97.57,-9.6" style="fill:#dad9e8;fill-opacity:1;fill-rule:nonzero;stroke:none" id="path692"/>
        </g>
      </g>
      <path d="m 2786.4,1894.48 -84.91,49.35 -81.58,517.59 84.9,-49.34 81.59,-517.6" style="fill:#dad9e8;fill-opacity:1;fill-rule:nonzero;stroke:none" id="path694"/>
      <path d="m 2839.78,2673.38 -84.91,49.34 25.88,14.94 84.91,-49.34 -25.88,-14.94" style="fill:#ebebf1;fill-opacity:1;fill-rule:nonzero;stroke:none" id="path696"/>
      <path d="m 2704.81,2412.08 -84.9,49.34 c -13.89,88.07 50.36,212.45 134.96,261.3 l 84.91,-49.34 c -84.61,-48.85 -148.85,-173.23 -134.97,-261.3" style="fill:#ebebf1;fill-opacity:1;fill-rule:nonzero;stroke:none" id="path698"/>
      <g id="g700">
        <g id="g702" clip-path="url(#clipPath706)">
          <path d="m 2704.81,2412.08 -84.9,49.34 c -4.22,26.78 -1.22,56.91 7.38,87.26 l 84.9,-49.34 c -8.6,-30.35 -11.6,-60.48 -7.38,-87.26" style="fill:#ebebf1;fill-opacity:1;fill-rule:nonzero;stroke:none" id="path708"/>
          <path d="m 2712.19,2499.34 -84.9,49.34 c 9.67,34.15 26.44,68.57 47.98,98.78 l 84.91,-49.34 c -21.54,-30.21 -38.31,-64.63 -47.99,-98.78" style="fill:#ebebf1;fill-opacity:1;fill-rule:nonzero;stroke:none" id="path710"/>
          <path d="m 2760.18,2598.12 -84.91,49.34 c 16.47,23.09 35.73,43.72 56.74,59.9 l 84.91,-49.35 c -21.01,-16.17 -40.27,-36.8 -56.74,-59.89" style="fill:#ebebf1;fill-opacity:1;fill-rule:nonzero;stroke:none" id="path712"/>
          <path d="m 2816.92,2658.01 -84.91,49.35 c 7.42,5.7 15.06,10.85 22.86,15.36 l 84.91,-49.34 c -7.81,-4.51 -15.44,-9.66 -22.86,-15.37" style="fill:#ebebf1;fill-opacity:1;fill-rule:nonzero;stroke:none" id="path714"/>
        </g>
      </g>
      <path d="m 2865.66,2688.32 c 84.6,48.84 149.3,-1.08 135.96,-104.88 l -78.35,-609.94 c -6.2,-48.21 -37.19,-88.43 -68.24,-106.35 -31.06,-17.93 -62.18,-13.58 -68.63,27.33 l -81.59,517.6 c -13.88,88.07 50.36,212.45 134.97,261.3 l 25.88,14.94" style="fill:#d8e0ff;fill-opacity:1;fill-rule:nonzero;stroke:none" id="path716"/>
    </g>
  </g>
</svg>